<svg xmlns="http://www.w3.org/2000/svg" width="328.217" height="49.246" viewBox="0 0 328.217 49.246"><defs><style>.a{fill:#47b2b7;}</style></defs><path class="a" d="M322.98,30.178a2,2,0,0,1-.674-.118h0c-.092-.033-9.414-3.352-25.788-7.64a623.523,623.523,0,0,0-69.8-13.858C173.193,1,90.489-3.759.439,16.512A2,2,0,0,1-1.951,15,2,2,0,0,1-.439,12.61,594.143,594.143,0,0,1,63.9,1.849C83.67-.358,103.979-1.629,124.258-1.929A668.084,668.084,0,0,1,227.39,4.618c13.469,1.905,26.907,4.229,39.939,6.906,10.428,2.142,20.623,4.515,30.3,7.052,16.5,4.326,25.932,7.685,26.026,7.719a2,2,0,0,1-.674,3.883Z" transform="translate(2.102 19.005) rotate(-3)"/></svg>