<svg xmlns="http://www.w3.org/2000/svg" width="26.391" height="21" viewBox="0 0 26.391 21"><defs><style>.a{fill:#646f77;}</style></defs><g transform="translate(-290.401 -161.305)"><g transform="translate(290.401 161.305)"><path class="a" d="M290.4,171.8a10.5,10.5,0,1,1,10.5,10.5A10.512,10.512,0,0,1,290.4,171.8Zm2.311,0a8.189,8.189,0,1,0,8.189-8.189A8.2,8.2,0,0,0,292.712,171.8Z" transform="translate(-290.401 -161.305)"/></g><g transform="translate(296.32 162.587)"><g transform="translate(0 0)"><path class="a" d="M306.682,177.883c-.043,0-.085,0-.129-.006a1.353,1.353,0,0,1-1.044-.673,28.382,28.382,0,0,0-3.379-4.553A1.352,1.352,0,1,1,304.1,170.8a32.078,32.078,0,0,1,2.774,3.5c2.4-2.552,7.945-8.03,13.469-10.424a1.352,1.352,0,0,1,1.076,2.481c-6.611,2.865-13.646,10.971-13.716,11.053A1.353,1.353,0,0,1,306.682,177.883Z" transform="translate(-301.764 -163.767)"/></g></g></g></svg>