<svg xmlns="http://www.w3.org/2000/svg" width="22.047" height="22.047" viewBox="0 0 22.047 22.047"><defs><style>.a{fill:#fff;}</style></defs><path class="a" d="M3.307,22.614H8.451a.367.367,0,0,0,.367-.367v-.735a.367.367,0,0,0-.367-.367H3.307a.367.367,0,0,0-.367.367v.735A.367.367,0,0,0,3.307,22.614Zm.234,11.373.519.519a.368.368,0,0,0,.519,0l1.3-1.3,1.3,1.3a.368.368,0,0,0,.519,0l.519-.519a.368.368,0,0,0,0-.519l-1.3-1.3,1.3-1.3a.368.368,0,0,0,0-.519L7.7,29.829a.368.368,0,0,0-.519,0l-1.3,1.3-1.3-1.3a.368.368,0,0,0-.519,0l-.519.52a.368.368,0,0,0,0,.519l1.3,1.3-1.3,1.3a.368.368,0,0,0,0,.52ZM20.577,16H1.47A1.47,1.47,0,0,0,0,17.47V36.577a1.47,1.47,0,0,0,1.47,1.47H20.577a1.47,1.47,0,0,0,1.47-1.47V17.47A1.47,1.47,0,0,0,20.577,16ZM10.289,36.577H1.47V27.758h8.819Zm0-10.289H1.47V17.47h8.819ZM20.577,36.577H11.758V27.758h8.819Zm0-10.289H11.758V17.47h8.819ZM13.6,22.614h1.837v1.837a.367.367,0,0,0,.367.367h.735a.367.367,0,0,0,.367-.367V22.614H18.74a.367.367,0,0,0,.367-.367v-.735a.367.367,0,0,0-.367-.367H16.9V19.307a.367.367,0,0,0-.367-.367H15.8a.367.367,0,0,0-.367.367v1.837H13.6a.367.367,0,0,0-.367.367v.735A.367.367,0,0,0,13.6,22.614Zm0,11.758H18.74A.367.367,0,0,0,19.107,34V33.27a.367.367,0,0,0-.367-.367H13.6a.367.367,0,0,0-.367.367V34A.367.367,0,0,0,13.6,34.372Zm0-2.94H18.74a.367.367,0,0,0,.367-.367V30.33a.367.367,0,0,0-.367-.367H13.6a.367.367,0,0,0-.367.367v.735A.367.367,0,0,0,13.6,31.433Z" transform="translate(0 -16)"/></svg>