<svg xmlns="http://www.w3.org/2000/svg" width="24.935" height="24.935" viewBox="0 0 24.935 24.935"><defs><style>.a{fill:#fff;}</style></defs><path class="a" d="M20.463,13.676l.457-.789a1.027,1.027,0,0,1,1.78,1.026l-4.4,7.616h3.182a1.408,1.408,0,0,1,1.161,2.051H13.319a1.026,1.026,0,1,1,0-2.051h2.614l3.348-5.8-1.046-1.815a1.027,1.027,0,1,1,1.78-1.026Zm-3.956,10.96-.985,1.709a1.027,1.027,0,0,1-1.78-1.026l.734-1.267a1.751,1.751,0,0,1,2.031.583ZM25,21.534h2.67a1.026,1.026,0,0,1,0,2.051H26.184l1,1.734a1.027,1.027,0,1,1-1.78,1.026q-2.526-4.381-3.791-6.566a2.832,2.832,0,0,1,.362-3.474Q22.986,18.04,25,21.534ZM20.468,8A12.468,12.468,0,1,0,32.935,20.468,12.466,12.466,0,0,0,20.468,8ZM31.327,20.468A10.859,10.859,0,1,1,20.468,9.609,10.859,10.859,0,0,1,31.327,20.468Z" transform="translate(-8 -8)"/></svg>