<svg xmlns="http://www.w3.org/2000/svg" width="44.286" height="31" viewBox="0 0 44.286 31"><defs><style>.a{fill:#47b2b7;}</style></defs><path class="a" d="M37.643,45.286a5.536,5.536,0,1,0-5.536-5.536A5.534,5.534,0,0,0,37.643,45.286Zm0-8.857a3.321,3.321,0,1,1-3.321,3.321A3.322,3.322,0,0,1,37.643,36.429ZM22.143,47.5a7.75,7.75,0,1,0-7.75-7.75A7.746,7.746,0,0,0,22.143,47.5Zm0-13.286a5.536,5.536,0,1,1-5.536,5.536A5.543,5.543,0,0,1,22.143,34.214ZM39.027,47.5H36.259a5.006,5.006,0,0,0-2.844.893,9.379,9.379,0,0,1,1.758,1.55,2.753,2.753,0,0,1,1.086-.228h2.768a3.2,3.2,0,0,1,3.045,3.321,1.107,1.107,0,0,0,2.214,0A5.41,5.41,0,0,0,39.027,47.5ZM6.643,45.286A5.536,5.536,0,1,0,1.107,39.75,5.534,5.534,0,0,0,6.643,45.286Zm0-8.857A3.321,3.321,0,1,1,3.321,39.75,3.322,3.322,0,0,1,6.643,36.429ZM27.685,48.884c-2.311,0-2.885.83-5.543.83s-3.231-.83-5.543-.83a7.626,7.626,0,0,0-6.387,3.245,7.929,7.929,0,0,0-1.356,4.449v3.1A3.322,3.322,0,0,0,12.179,63H32.107a3.322,3.322,0,0,0,3.321-3.321v-3.1a7.929,7.929,0,0,0-1.356-4.449,7.626,7.626,0,0,0-6.387-3.245Zm5.529,10.795a1.11,1.11,0,0,1-1.107,1.107H12.179a1.11,1.11,0,0,1-1.107-1.107v-3.1a5.749,5.749,0,0,1,.976-3.211,5.416,5.416,0,0,1,4.546-2.27c1.9,0,2.574.83,5.55.83s3.654-.83,5.543-.83a5.416,5.416,0,0,1,4.546,2.27,5.749,5.749,0,0,1,.976,3.211v3.1ZM10.871,48.393A5.039,5.039,0,0,0,8.027,47.5H5.259A5.41,5.41,0,0,0,0,53.036a1.107,1.107,0,1,0,2.214,0,3.2,3.2,0,0,1,3.045-3.321H8.027a2.753,2.753,0,0,1,1.086.228,9.6,9.6,0,0,1,1.758-1.55Z" transform="translate(0 -32)"/></svg>