<svg xmlns="http://www.w3.org/2000/svg" width="30.267" height="40.356" viewBox="0 0 30.267 40.356"><defs><style>.a{fill:#47b2b7;}</style></defs><path class="a" d="M26.484,5.045H19.5a4.5,4.5,0,0,0,.046-.631,4.414,4.414,0,0,0-8.828,0,4.5,4.5,0,0,0,.046.631H3.783A3.783,3.783,0,0,0,0,8.828V36.573a3.783,3.783,0,0,0,3.783,3.783h22.7a3.783,3.783,0,0,0,3.783-3.783V8.828a3.783,3.783,0,0,0-3.783-3.783ZM15.134,2.522a1.892,1.892,0,1,1-1.892,1.892,1.892,1.892,0,0,1,1.892-1.892ZM27.745,36.573a1.261,1.261,0,0,1-1.261,1.261H3.783a1.261,1.261,0,0,1-1.261-1.261V8.828A1.261,1.261,0,0,1,3.783,7.567H7.567V9.143a.946.946,0,0,0,.946.946H21.755a.946.946,0,0,0,.946-.946V7.567h3.783a1.261,1.261,0,0,1,1.261,1.261ZM18.666,26.484c-1.695.188-1.781.631-3.532.631s-1.837-.44-3.532-.631c-3.616,0-6.557,2.6-6.557,5.8a2.909,2.909,0,0,0,3.028,3.028H22.2a2.909,2.909,0,0,0,3.028-3.028C25.223,29.085,22.282,26.484,18.666,26.484ZM22.2,32.79H8.072c-.538,0-.505-.251-.505-.505,0-1.807,1.813-3.278,4.035-3.278a12.563,12.563,0,0,0,3.532.631,12.563,12.563,0,0,0,3.532-.631c2.222,0,4.035,1.471,4.035,3.278C22.7,32.538,22.733,32.79,22.2,32.79Zm-7.062-7.567a6.306,6.306,0,1,0-6.306-6.306,6.306,6.306,0,0,0,6.306,6.306Zm0-10.089a3.783,3.783,0,1,1-3.783,3.783A3.783,3.783,0,0,1,15.134,15.134Z"/></svg>