<svg xmlns="http://www.w3.org/2000/svg" width="62.902" height="57" viewBox="0 0 62.902 57"><defs><style>.a{fill:#f0f4fa;}.b{fill:#1c2930;}</style></defs><g transform="translate(-615 -2113)"><circle class="a" cx="28.5" cy="28.5" r="28.5" transform="translate(615 2113)"/><g transform="translate(643 2124)"><path class="b" d="M34.86,2.606A2.713,2.713,0,0,0,32.3.041a26.941,26.941,0,0,0-13.506,2.7,26.515,26.515,0,0,0-7.743,6.42l-.082.1L5.854,9.66A2.7,2.7,0,0,0,3.8,10.869L.311,16.144a1.869,1.869,0,0,0,1.273,2.878l4.306.667c-.015.084-.03.167-.044.251a2.711,2.711,0,0,0,.76,2.359l6,6a2.718,2.718,0,0,0,1.918.8,2.673,2.673,0,0,0,.44-.037l.251-.044.667,4.306a1.867,1.867,0,0,0,2.878,1.273L24.032,31.1a2.7,2.7,0,0,0,1.21-2.056l.395-5.111.1-.082a26.513,26.513,0,0,0,6.42-7.743,26.943,26.943,0,0,0,2.7-13.506ZM22.9,29.4l-5.045,3.336-.65-4.2a22.906,22.906,0,0,0,6.251-2.976L23.2,28.89a.666.666,0,0,1-.3.508ZM14.05,26.85l-6-6a.663.663,0,0,1-.189-.575,17.59,17.59,0,0,1,.8-3.038l9,9a17.664,17.664,0,0,1-3.036.8.663.663,0,0,1-.575-.189ZM6.011,11.7l3.33-.257a22.9,22.9,0,0,0-2.976,6.251l-4.2-.65L5.5,12A.666.666,0,0,1,6.011,11.7ZM24.427,22.284a23.444,23.444,0,0,1-4.733,3.1L9.522,15.208a23.85,23.85,0,0,1,3.1-4.733A24.4,24.4,0,0,1,19.73,4.561,24.872,24.872,0,0,1,32.185,2.083a.671.671,0,0,1,.634.634,24.87,24.87,0,0,1-2.478,12.455,24.4,24.4,0,0,1-5.914,7.112Z" transform="translate(0 0)"/><path class="b" d="M280.835,96.538a5.108,5.108,0,1,0-3.615-1.495A5.1,5.1,0,0,0,280.835,96.538Zm-2.169-7.279a3.067,3.067,0,1,1-.9,2.169A3.058,3.058,0,0,1,278.666,89.259Z" transform="translate(-256.928 -80.434)"/><path class="b" d="M1.324,348.348a1.019,1.019,0,0,0,.723-.3l3.338-3.338a1.022,1.022,0,0,0-1.446-1.446L.6,346.6a1.023,1.023,0,0,0,.723,1.746Z" transform="translate(-0.281 -319.585)"/><path class="b" d="M8.164,388.145a1.022,1.022,0,0,0-1.446,0L.3,394.563a1.022,1.022,0,1,0,1.446,1.446l6.418-6.418a1.022,1.022,0,0,0,0-1.446Z" transform="translate(-0.001 -361.407)"/><path class="b" d="M93.7,433.026l-3.338,3.338a1.022,1.022,0,1,0,1.446,1.446l3.338-3.338a1.022,1.022,0,0,0-1.446-1.446Z" transform="translate(-83.923 -403.229)"/></g></g></svg>