<?xml version="1.0" encoding="utf-8"?>
<!-- Generator: Adobe Illustrator 23.1.0, SVG Export Plug-In . SVG Version: 6.00 Build 0)  -->
<svg version="1.1" id="Layer_1" xmlns="http://www.w3.org/2000/svg" xmlns:xlink="http://www.w3.org/1999/xlink" x="0px" y="0px"
	 viewBox="0 0 363.3 129.9" style="enable-background:new 0 0 363.3 129.9;" xml:space="preserve">
<style type="text/css">
	.st0{fill:#252D32;}
	.st1{fill:#47B2B7;}
	.st2{fill:#C55980;}
</style>
<g>
	<g>
		<path class="st0" d="M6.1,36.1v18h5.1c2.5,0,4.6-0.9,6.3-2.6c1.8-1.8,2.6-3.9,2.6-6.4s-0.9-4.6-2.6-6.3c-1.8-1.7-3.9-2.6-6.3-2.6
			H6.1V36.1z M6.1,59.7v13.7H0.5V30.6h12.1c3.4,0.5,6.3,1.9,8.7,4.3c2.8,2.9,4.3,6.3,4.3,10.3s-1.4,7.5-4.3,10.3
			c-2.8,2.8-6.3,4.3-10.3,4.3L6.1,59.7L6.1,59.7z"/>
	</g>
	<polygon class="st0" points="54.2,30.6 54.2,36.1 36.7,36.1 36.7,49.2 54.2,49.2 54.2,54.7 36.7,54.7 36.7,67.8 54.2,67.8 
		54.2,73.4 31.1,73.4 31.1,30.6 	"/>
	<g>
		<path class="st0" d="M67.1,36.1v18h5.1c2.5,0,4.6-0.9,6.3-2.6c1.8-1.8,2.6-3.9,2.6-6.4s-0.9-4.6-2.6-6.3c-1.8-1.7-3.9-2.6-6.3-2.6
			h-5.1V36.1z M72.1,59.7H67v13.7h-5.5V30.6h12.1c3.4,0.5,6.3,1.9,8.7,4.3c2.8,2.9,4.3,6.3,4.3,10.3s-1.4,7.5-4.3,10.3
			c-2,2-3.5,3.1-4.5,3.3l9.6,14.6h-6.7L72.1,59.7z"/>
	</g>
	<polygon class="st0" points="113.5,30.6 113.5,36.1 98.4,36.1 98.4,49.2 113.5,49.2 113.5,54.7 98.4,54.7 98.4,73.4 92.9,73.4 
		92.9,30.6 	"/>
	<polygon class="st0" points="143.9,30.6 143.9,36.1 126.4,36.1 126.4,49.2 143.9,49.2 143.9,54.7 126.4,54.7 126.4,67.8 
		143.9,67.8 143.9,73.4 120.8,73.4 120.8,30.6 	"/>
	<g>
		<path class="st0" d="M184.3,63.2l4.1,3.7c-5.1,4.6-10.4,6.9-16.1,6.9c-6,0-11.2-2.1-15.5-6.4s-6.4-9.4-6.4-15.5
			c0-6,2.1-11.2,6.4-15.5c4.3-4.3,9.4-6.4,15.5-6.4c5.7,0,11,2.3,16.1,6.9l-4.1,3.8c-3.8-3.4-7.8-5.1-11.9-5.1
			c-4.5,0-8.3,1.6-11.5,4.8s-4.8,7-4.8,11.5s1.6,8.4,4.8,11.5c3.2,3.2,7,4.8,11.5,4.8C176.5,68.3,180.5,66.6,184.3,63.2"/>
	</g>
	<polygon class="st0" points="208,36.1 208,73.4 202.4,73.4 202.4,36.1 192.5,36.1 192.5,30.6 218,30.6 218,36.1 	"/>
	<g>
		<path class="st0" d="M32.8,88.4v23.1h7.3c3.2,0,5.9-1.1,8.1-3.4c2.3-2.3,3.4-5,3.4-8.2s-1.1-5.9-3.4-8.2c-2.3-2.2-5-3.4-8.1-3.4
			L32.8,88.4L32.8,88.4z M32.8,113.9v14.8h-2.4V86h11.2c3.3,0.4,6,1.8,8.3,4.1c2.7,2.7,4.1,6,4.1,9.9s-1.4,7.2-4.1,9.9
			c-2.7,2.7-6,4.1-9.9,4.1L32.8,113.9L32.8,113.9z"/>
		<path class="st0" d="M80.8,87.8c-5.4,0-10,1.9-13.8,5.7c-3.8,3.8-5.7,8.4-5.7,13.8s1.9,10,5.7,13.8c3.8,3.8,8.4,5.7,13.8,5.7
			s10-1.9,13.8-5.7c3.8-3.8,5.7-8.4,5.7-13.8s-1.9-10-5.7-13.8C90.8,89.7,86.2,87.8,80.8,87.8 M96.4,91.8c4.3,4.3,6.4,9.5,6.4,15.5
			c0,6.1-2.1,11.2-6.4,15.5c-4.3,4.3-9.5,6.4-15.5,6.4c-6.1,0-11.2-2.1-15.5-6.4c-4.3-4.3-6.4-9.5-6.4-15.5c0-6.1,2.1-11.2,6.4-15.5
			s9.5-6.4,15.5-6.4C86.9,85.3,92.1,87.5,96.4,91.8"/>
		<path class="st0" d="M112.6,88.4v23.1h7.3c3.2,0,5.9-1.1,8.1-3.4c2.3-2.3,3.4-5,3.4-8.2s-1.1-5.9-3.4-8.2c-2.3-2.2-5-3.4-8.1-3.4
			L112.6,88.4L112.6,88.4z M120.5,113.9c-0.2,0-0.5,0-0.7,0h-7.3v14.8h-2.4V86h11.2c3.3,0.4,6,1.8,8.3,4.1c2.7,2.7,4.1,6,4.1,9.9
			s-1.4,7.2-4.1,9.9c-1.9,1.9-4.1,3.1-6.5,3.7l9.9,15.2h-3L120.5,113.9z"/>
	</g>
	<polygon class="st0" points="137,86 137,88.4 147.8,88.4 147.8,128.7 150.2,128.7 150.2,88.4 161.1,88.4 161.1,86 	"/>
	<path class="st0" d="M177.7,92l6.5,17.9h-13.1L177.7,92z M161.8,128.7h2.6l6-16.4h14.8l6,16.4h2.5l-15.9-43.8L161.8,128.7z"/>
	<polygon class="st0" points="199,86 199,128.7 218,128.7 218,126.3 201.4,126.3 201.4,86 	"/>
	<g>
		<path class="st1" d="M362.8,64.9c0-35.5-28.8-64.3-64.3-64.3s-64.4,28.8-64.4,64.3c0,12.2,3.4,23.6,9.3,33.3V68.4
			c-0.1-1.2-0.1-2.3-0.1-3.5c0-30.5,24.7-55.2,55.2-55.2s55.2,24.7,55.2,55.2s-24.7,55.2-55.2,55.2c-1.6,0-3.2-0.1-4.8-0.2v9.2
			c1.6,0.1,3.2,0.2,4.8,0.2C334,129.3,362.8,100.4,362.8,64.9"/>
		<path class="st2" d="M263.3,129h-9.6V65c0-12,4.7-23.3,13.1-31.8c8.5-8.5,19.7-13.2,31.7-13.2s23.2,4.7,31.7,13.2
			S343.3,53,343.3,65s-4.7,23.3-13.1,31.8c-8.5,8.5-19.7,13.2-31.7,13.2h-4.8v-9.6h4.8c9.4,0,18.2-3.7,24.9-10.3
			c6.7-6.7,10.3-15.5,10.3-25c0-9.4-3.7-18.3-10.3-25c-6.6-6.7-15.5-10.3-24.9-10.3s-18.2,3.7-24.9,10.3c-6.7,6.7-10.3,15.5-10.3,25
			L263.3,129L263.3,129z"/>
		<path class="st0" d="M283.4,129h-9.6V64.9c0-6.6,2.6-12.8,7.2-17.4c4.7-4.6,10.9-7.2,17.4-7.2c6.6,0,12.8,2.6,17.4,7.2
			c4.7,4.6,7.2,10.8,7.3,17.4c0,6.6-2.6,12.8-7.3,17.4c-4.5,4.5-10.5,7-16.9,7.2l-4.8,0.1l-0.2-9.6l4.8-0.1
			c3.9-0.1,7.6-1.6,10.3-4.4c2.9-2.8,4.4-6.6,4.4-10.6s-1.6-7.8-4.4-10.6s-6.6-4.4-10.7-4.4c-4,0-7.8,1.6-10.7,4.4
			c-2.8,2.8-4.4,6.6-4.4,10.6V129H283.4z"/>
	</g>
</g>
</svg>
