<svg xmlns="http://www.w3.org/2000/svg" width="22" height="22.855" viewBox="0 0 22 22.855"><path d="M38.722,21.421l-1.5-.868a8.993,8.993,0,0,0,0-2.253l1.5-.868a1.1,1.1,0,0,0,.509-1.267,11.408,11.408,0,0,0-2.651-4.589,1.106,1.106,0,0,0-1.356-.2l-1.5.866a8.946,8.946,0,0,0-1.951-1.128V9.384a1.107,1.107,0,0,0-.852-1.077,11.508,11.508,0,0,0-5.288,0,1.107,1.107,0,0,0-.852,1.077v1.733a8.943,8.943,0,0,0-1.951,1.128l-1.5-.866a1.106,1.106,0,0,0-1.356.2,11.408,11.408,0,0,0-2.651,4.589,1.1,1.1,0,0,0,.509,1.267l1.5.868a8.993,8.993,0,0,0,0,2.253l-1.5.868a1.1,1.1,0,0,0-.509,1.267,11.408,11.408,0,0,0,2.651,4.589,1.106,1.106,0,0,0,1.356.2l1.5-.866a8.943,8.943,0,0,0,1.951,1.128V29.47a1.107,1.107,0,0,0,.852,1.077,11.508,11.508,0,0,0,5.288,0,1.107,1.107,0,0,0,.852-1.077V27.737a8.945,8.945,0,0,0,1.951-1.128l1.5.866a1.106,1.106,0,0,0,1.356-.2,11.408,11.408,0,0,0,2.651-4.589,1.1,1.1,0,0,0-.509-1.267ZM35.7,26.05l-2.134-1.232A7.961,7.961,0,0,1,30.3,26.71v2.464a10.006,10.006,0,0,1-4.043,0V26.71a7.963,7.963,0,0,1-3.273-1.892L20.847,26.05a9.953,9.953,0,0,1-2.024-3.5l2.135-1.232a8.028,8.028,0,0,1,0-3.782L18.823,16.3a9.96,9.96,0,0,1,2.024-3.5l2.134,1.233a7.95,7.95,0,0,1,3.273-1.892V9.68a9.989,9.989,0,0,1,4.043,0v2.464a7.95,7.95,0,0,1,3.273,1.892L35.7,12.8a9.959,9.959,0,0,1,2.024,3.5l-2.135,1.232a8.028,8.028,0,0,1,0,3.782l2.135,1.232a9.953,9.953,0,0,1-2.024,3.5ZM28.276,15A4.424,4.424,0,1,0,32.7,19.427,4.428,4.428,0,0,0,28.276,15Zm0,7.373a2.949,2.949,0,1,1,2.949-2.949A2.952,2.952,0,0,1,28.276,22.376Z" transform="translate(-17.276 -8)" fill="#fff"/></svg>