<svg xmlns="http://www.w3.org/2000/svg" width="23.5" height="23.5" viewBox="0 0 23.5 23.5"><path d="M21.17,13.219H10.279V2.327a.741.741,0,0,0-.722-.744.7.7,0,0,0-.1.007A11.007,11.007,0,0,0,0,12.855,11.151,11.151,0,0,0,10.643,23.494c.123,0,.247.006.37.006a11.007,11.007,0,0,0,10.894-9.462A.736.736,0,0,0,21.17,13.219ZM11.013,22.031c-.107,0-.215,0-.322-.006a9.679,9.679,0,0,1-9.219-9.219,9.523,9.523,0,0,1,7.339-9.6V14.687H20.291A9.583,9.583,0,0,1,11.013,22.031ZM13.253,0l-.048,0a.741.741,0,0,0-.723.745V11.015H22.752a.739.739,0,0,0,.744-.771A11.042,11.042,0,0,0,13.253,0Zm.7,9.545V1.556a9.612,9.612,0,0,1,7.991,7.991Z" transform="translate(0.003)" fill="#fff"/></svg>