<svg xmlns="http://www.w3.org/2000/svg" width="22.73" height="19.886" viewBox="0 0 22.73 19.886"><path d="M11.3,32C5.024,32-.063,36.133-.063,41.233a8.16,8.16,0,0,0,2.348,5.606,11.264,11.264,0,0,1-2.06,3.249A1.066,1.066,0,0,0,1,51.886a10.77,10.77,0,0,0,6.174-2.055,13.709,13.709,0,0,0,4.124.635c6.277,0,11.364-4.133,11.364-9.233S17.577,32,11.3,32Zm0,17.045a12.243,12.243,0,0,1-3.693-.568l-.675-.213-.577.408A9.578,9.578,0,0,1,1.8,50.43a11.975,11.975,0,0,0,1.811-3.089l.315-.83-.608-.648a6.709,6.709,0,0,1-1.962-4.63c0-4.306,4.461-7.812,9.943-7.812s9.943,3.507,9.943,7.812S16.782,49.045,11.3,49.045Zm3.365-5.8a4.449,4.449,0,0,1-6.729,0,.71.71,0,1,0-1.079.923,5.873,5.873,0,0,0,8.891,0,.712.712,0,0,0-1.083-.923ZM8.459,40.168A1.065,1.065,0,1,0,7.394,39.1,1.063,1.063,0,0,0,8.459,40.168Zm5.682,0A1.065,1.065,0,1,0,13.076,39.1,1.063,1.063,0,0,0,14.141,40.168Z" transform="translate(0.066 -32)" fill="#fff"/></svg>