<svg xmlns="http://www.w3.org/2000/svg" xmlns:xlink="http://www.w3.org/1999/xlink" preserveAspectRatio="none" viewBox="0 0 365.236 65.642">
  <defs>
    <clipPath id="clip-path">
      <rect id="Rectangle_382" data-name="Rectangle 382" width="363.29" height="46.693" fill="#308688"/>
    </clipPath>
  </defs>
  <g id="Group_839" data-name="Group 839" transform="translate(0 19.013) rotate(-3)">
    <g id="Group_838" data-name="Group 838" clip-path="url(#clip-path)">
      <path id="Path_964" data-name="Path 964" d="M360.258,28.281c.456,1.788-.079,2.648-2.031,3.141a10.144,10.144,0,0,1-3.195.639c-2.611-.274-3.436,1.064-4.566,2.054-.923.809-.286,1.225,1.149,1.1.438-.038.985-.438,1.274.036.218.357-.379.83.137,1.188a1.3,1.3,0,0,0,1.322.128,3.635,3.635,0,0,1,1.841-.223.954.954,0,0,1,.1,1.6c-1.889,1.93-3.6,4.05-6.093,5.559a14.773,14.773,0,0,1-5.579,1.819,205.04,205.04,0,0,1-22.976,1.371c-6.445-.017-12.881-.374-19.347-.19-7.863.223-15.753.049-23.63-.016-15.163-.123-30.183-1.522-45.272-2.305-7.349-.382-14.714-.7-22.1-.847-7.451-.151-14.969-.309-22.4-1.027-8.916-.862-17.909-1.137-26.881-1.574-7.479-.364-14.944-.858-22.421-1.229-5.1-.254-10.226-.266-15.3-.621-6.338-.444-12.629-1.183-18.959-1.7-8.8-.713-17.542-1.712-26.361-2.374q-10.579-.794-21.04-2.363c-8.055-1.2-16.175-2.2-24.287-3.209-6.016-.751-12.086-1.308-18.088-2.1a66.667,66.667,0,0,0-7.6-1.087A3.763,3.763,0,0,1,4.8,24.126C4.031,22.841,4,21.3,2.092,20.356a.853.853,0,0,1-.313-.944c.86-2.436-.632-4.6-1.636-6.825-.287-.634-.209-1.145.852-1.439,2.429-.674,4.4-1.4,3.71-3.7-.2-.685,1.731-1.729,3.233-2.225.207-.068.53.025.74-.042,5.021-1.6,9.874-.117,14.784.342a7.619,7.619,0,0,0,1.85-.015c5.842-.931,11.333.54,16.958,1.088,1.062.1,2.009.706,3.087-.452.575-.618,2.935-.483,4.528-.879C42.6,2.985,34.567,2.708,26.722,1.335a7.067,7.067,0,0,1,3.741.163,16.338,16.338,0,0,0,4.367.643c.479-.01,1.328.011,1.237-.3C35.36-.6,38.137.67,38.987.778c2.231.284,4.5.106,6.707.445.336.052.755-.187.5-.493-.156-.184-.521-.288-.769-.55C47.636.57,49.75.047,51.908,0c3.442-.069,6.612.828,9.927,1.173,3.059.318,6.165.349,9.238.758,5.287.7,10.581,1.454,15.921,2.035,8.874.965,17.848,1.146,26.714,2.068,6.9.719,13.86,1.2,20.8,1.763,3.1.252,6.211.605,9.324.642,6.493.076,12.925.691,19.324,1.212,7.153.582,14.369.509,21.447,1.2,4.815.471,9.559,0,14.322.367,4.208.32,8.381.825,12.636.953,5.612.169,11.2.7,16.815.809q9.992.193,19.98.478c6.851.2,13.753.346,20.571.954a119.108,119.108,0,0,0,11.97.378c10.258-.117,20.5.259,30.741.5,3,.072,5.986-.235,9-.032,4.3.291,8.582.615,12.918.746,4.889.148,9.511-.56,14.256-.913,3.125-.233,6.3-.851,9.54-.138,1.8.4,3.413,1.317,2.779,2.39-.877,1.486-.005,2.37,1.27,3.364.474.37.548.984,1.049,1.323,1.185.8,1.009,1.44.17,2.367-.592.653-1.2,1.527-.849,2.385.376.93-.935,1.045-1.431,1.549a25.733,25.733,0,0,0-6.154.615c2.844,1.562,3.56,1.464,6.076-.672" transform="translate(0 0)" fill="#308688"/>
    </g>
  </g>
</svg>
