<svg xmlns="http://www.w3.org/2000/svg" viewBox="0 0 562.33 203.7"><g id="Layer_2" data-name="Layer 2"><g id="Layer_1-2" data-name="Layer 1"><path d="M71.13,6.36a7.15,7.15,0,0,0,6,3.19h22.4a40.3,40.3,0,0,1,10.24,78.82,1.43,1.43,0,0,0,.21,2.77,46.35,46.35,0,0,0,7.21.56,45.87,45.87,0,0,0,45.59-40.79C165.74,23.49,143.57.47,116.52,0l-.58,0H68.75a1,1,0,0,0-.83,1.55Z" style="fill:#1c2930"/><path d="M247.46,11.32c4.79.29,5.32,1.82,5.48,8.24.16,5.77.16,11.55.16,17.15,0,2.66,0,9.73-.16,13.51-.24,6.66-.62,7.87-4.82,8.16a.91.91,0,0,0-.82,1,.81.81,0,0,0,.83.86l2.45-.09c2-.07,4.15-.15,5-.15,1.05,0,3.13.16,5.33.33,2.78.22,5.94.46,8,.46,8.73,0,18.12-4.65,18.12-14.87,0-7-4.86-12.14-12.8-13.63,3.14-1.47,8.06-4.84,8.06-11.53,0-6.53-5.62-10.94-14.31-11.24-2.22-.09-5.54,0-8.48.08-1.68,0-3.23.08-4.35.08-2.55,0-5.71-.08-7.59-.16a.75.75,0,0,0-.68.43,1.15,1.15,0,0,0,.08,1.12A.65.65,0,0,0,247.46,11.32ZM269,57.67a12.64,12.64,0,0,1-6.21-1.37,2.23,2.23,0,0,1-1.22-2.21c-.08-1.5-.16-4-.16-6.3,0-2.06,0-4.43,0-6.74,0-2.07,0-4.1,0-5.84h3.16c4.48,0,8.11,1.3,10.51,3.75a12,12,0,0,1,3.17,8.89C278.19,53.91,274.61,57.67,269,57.67Zm.56-26.15a16,16,0,0,1-4.75.44h-3.32c0-2.63,0-6.91-.05-10.62,0-2.91,0-5.46,0-6.54s0-1.79.29-2.06,1.12-.31,2.46-.23h0c6.36.3,9.58,4.07,9.58,11.23C273.74,27.71,272.34,30.33,269.56,31.52Z" style="fill:#1c2930"/><path d="M322.05,53.9a.87.87,0,0,0-.27-1.12.81.81,0,0,0-1.09.11,11.68,11.68,0,0,1-8.41,3.44c-7,0-10.93-4.39-11.07-12.34,0-1.46,0-2.22.05-3,1.74-.06,3.82-.06,7.14-.06,2.12,0,4.43,0,6.43.05l3.78,0c2.17,0,2.53-.79,2.53-2.55C321,32.3,316.29,26,308.72,26a15.07,15.07,0,0,0-11,4.46c-3.34,3.39-5.13,8.36-5,14C293,59.38,304.32,61,309.19,61,315.19,61,319.76,58.48,322.05,53.9ZM308.4,28.73A4.08,4.08,0,0,1,311.48,30c1.76,1.85,2.3,5.49,2.23,8.2-1.94.07-4,.07-6.18.07s-4.07,0-6-.06C302.27,31.92,304.59,28.73,308.4,28.73Z" style="fill:#1c2930"/><path d="M324.46,10.93h1c1.81,0,2.83.88,3.09,5.56.31,5.2.31,10.8.31,19.27,0,8.68-.08,16.49-.16,18.32-.3,3.77-1.1,4-2.67,4.31a1,1,0,0,0-.72,1,.78.78,0,0,0,.79.77c.64,0,2.07-.06,3.45-.12s2.8-.12,3.43-.12,1.94.05,3.18.1c1.54.07,3.28.14,4.73.14a.84.84,0,0,0,.65-.3,1,1,0,0,0,.19-.59.87.87,0,0,0-.77-.93h0c-2.87-.46-3.55-.57-3.78-4.3-.14-2.2-.23-9-.23-17.77,0-2.41,0-5,0-7.53,0-7.51,0-15.27-.09-18.82,0-1.57-.12-2.77-1.67-2.77a41.25,41.25,0,0,0-6.46,1c-1.32.27-2.78.57-4.35.86a.85.85,0,0,0-.75.93A.91.91,0,0,0,324.46,10.93Z" style="fill:#1c2930"/><path d="M345.83,10.93h.95c1.8,0,2.82.88,3.08,5.56.31,5.2.31,10.8.31,19.27,0,8.68-.08,16.49-.15,18.32-.3,3.77-1.11,4-2.68,4.31a1,1,0,0,0-.71,1,.77.77,0,0,0,.78.77c.64,0,2.07-.06,3.46-.12s2.8-.12,3.42-.12,1.94.05,3.18.1c1.54.07,3.29.14,4.73.14a.84.84,0,0,0,.65-.3.94.94,0,0,0,.2-.59.88.88,0,0,0-.78-.93h0c-2.87-.46-3.55-.57-3.77-4.3-.15-2.2-.24-9-.24-17.77,0-2.41,0-5,0-7.53,0-7.51,0-15.27-.09-18.82,0-1.57-.12-2.77-1.67-2.77a41.25,41.25,0,0,0-6.46,1c-1.32.27-2.78.57-4.34.86a.85.85,0,0,0-.76.93A.91.91,0,0,0,345.83,10.93Z" style="fill:#1c2930"/><path d="M385.41,11.32h0c4.93.59,5,1.76,5.11,8.24.16,5,.16,9.23.16,14.15,0,5.67,0,11.54-.16,17.07-.16,6.81-1.06,7.17-4.82,7.6a.89.89,0,0,0-.84.94.93.93,0,0,0,.19.59.84.84,0,0,0,.66.3l2.31-.07c2.49-.08,5.32-.17,6.62-.17,5.29,0,8.66.09,11.91.17,2.9.08,5.63.15,9.45.15,2.12,0,4.61-.34,5.14-2.94a66.59,66.59,0,0,0,.44-9.32c0-1.05,0-2.12,0-3.17a.88.88,0,0,0-.8-.93h-.05a.93.93,0,0,0-.9.87c-1.52,7.68-4.5,11-10.3,11.29-1.26.08-3.6.08-4.72.08-4.5-.08-5.31-.54-5.38-6.18-.08-3.64-.16-9.31-.16-15.57,0-5.92,0-10.59.16-14.94.23-7,.72-7.87,4.32-8.16a.9.9,0,0,0,.79-1,.86.86,0,0,0-.86-.85h-.22c-2.19.08-6.27.23-8.78.23-2,0-4.76-.09-7.21-.17l-2.05-.07a.83.83,0,0,0-.87.87A.92.92,0,0,0,385.41,11.32Z" style="fill:#1c2930"/><path d="M438.17,41.38c-8.2,1.31-12.52,5.19-12.52,11.23a8,8,0,0,0,2.17,6c1.52,1.49,3.8,2.24,6.77,2.24h.48c3.88-.09,6.79-1.51,8.68-4.23a4.76,4.76,0,0,0,1.43,3.29,4.5,4.5,0,0,0,3.79.7l7.67-1.18a.9.9,0,0,0,.71-1.08.79.79,0,0,0-.88-.75c-1.67.13-2.78.09-3.48-.57-.94-.87-1.31-2.9-1.31-7.26,0-1.92,0-4.62,0-7.29s0-5.22,0-7c0-6-4.39-9.5-12-9.5-5.87,0-12.11,2.86-12.11,8.15a5.16,5.16,0,0,0,1.45,3.8,5.85,5.85,0,0,0,4.19,1.43l.42,0,0-.41a18.42,18.42,0,0,1,.08-2.95,13,13,0,0,1,1.72-6,5.09,5.09,0,0,1,3.74-1.29c3.79,0,4.5,2.25,4.5,6.4v5.86A49.64,49.64,0,0,0,438.17,41.38Zm5.44,10.79a5.55,5.55,0,0,1-5.7,4.39c-2.66,0-4.19-1.78-4.19-4.9a7.22,7.22,0,0,1,2.47-5.86h0c1.61-1.46,4.19-2.29,7.47-2.42C443.64,45,443.54,50.51,443.61,52.17Z" style="fill:#1c2930"/><path d="M492.14,60.07c1.35.07,2.88.14,4.39.14a.81.81,0,0,0,.65-.3.94.94,0,0,0,.2-.59.88.88,0,0,0-.78-.93h0c-2.32-.37-3.55-.71-3.77-4-.19-3-.18-7.78-.17-12.37V38.69a28.81,28.81,0,0,0-.36-4.62,9.55,9.55,0,0,1,6.84-3.13c4.29,0,6.15,2.2,6.41,7.61.22,4.58.17,11.64,0,16-.08,2.71-.63,3.69-2.2,3.89a1,1,0,0,0-.72,1,.79.79,0,0,0,.8.77h0c1.54-.08,5.31-.24,6.7-.24.9,0,2,.05,3.12.1,1.35.07,2.89.14,4.4.14a.8.8,0,0,0,.64-.3.94.94,0,0,0,.2-.59.88.88,0,0,0-.78-.93h0c-2.38-.37-3.63-.72-3.78-4-.17-2.73-.14-7.42-.1-12,0-1.73,0-3.43,0-5C513.86,30,510,26,502.54,26a14.33,14.33,0,0,0-11,5.46c-1.65-3.62-5-5.46-10.07-5.46a13,13,0,0,0-9.88,4.94V29.2c0-1.62-.14-2.86-1.82-2.86a36.33,36.33,0,0,0-6.6,1.11c-1.22.28-2.58.57-4.05.88a.84.84,0,0,0-.76.92.91.91,0,0,0,.88.9h1c1.81,0,2.83.88,3.09,5.56.15,2.31.24,14.43-.08,18.37-.3,3.77-1.1,4-2.68,4.31a1,1,0,0,0-.71,1,.78.78,0,0,0,.78.77c.64,0,2.07-.06,3.46-.12s2.8-.12,3.42-.12c.78,0,1.95.05,3.18.1,1.54.07,3.29.14,4.73.14a.81.81,0,0,0,.65-.3.94.94,0,0,0,.2-.59.88.88,0,0,0-.78-.93h0c-2.88-.46-3.56-.57-3.78-4.3-.3-5-.33-12.6-.09-19.92a9.25,9.25,0,0,1,6.73-3.23c4,0,5.84,2.28,6.09,7.38.23,4.77.23,12.17,0,16.18-.08,2.71-.63,3.69-2.2,3.89a1,1,0,0,0-.72,1,.78.78,0,0,0,.8.77h0c1.55-.08,5.32-.24,6.71-.24C489.92,60,491,60,492.14,60.07Z" style="fill:#1c2930"/><path d="M524.3,16.49c.16,2.5.32,13.92.32,18,0,10.75,0,18-.16,21.49l0,.4a16.23,16.23,0,0,1-.49,3.94.73.73,0,0,0,.08.86.86.86,0,0,0,.67.32.81.81,0,0,0,.34-.08,16.22,16.22,0,0,0,4.63-3.16,19,19,0,0,0,10.06,2.49c10.34,0,17-7.39,17-18.83,0-9.86-5.61-16-14.64-16a14.34,14.34,0,0,0-9.34,3.6c0-3.15,0-6.68-.08-10.09s-.07-6.78-.07-9.49c0-1.57-.13-2.77-1.67-2.77a41.25,41.25,0,0,0-6.46,1c-1.32.27-2.78.57-4.35.86a.85.85,0,0,0-.75.93.91.91,0,0,0,.88.9h1C523,10.93,524.05,11.81,524.3,16.49Zm8.48,34.7V32.58a12.35,12.35,0,0,1,6.8-2.19c5.74,0,8.53,4.29,8.53,13.12,0,9.61-2.9,14.48-8.61,14.48a7.7,7.7,0,0,1-5.5-2.1C533,54.89,532.78,54.34,532.78,51.19Z" style="fill:#1c2930"/><path d="M289.12,114.86A23.34,23.34,0,0,0,291,106c0-5.89-2.69-9.26-7.36-9.26-3.29,0-6,2.32-7,6a.77.77,0,0,0,.25.88.87.87,0,0,0,.92.08l.68-.3a7.47,7.47,0,0,1,3.12-.93c2.56,0,5.61,1,5.61,5.77a14,14,0,0,1-.75,4.67,161.1,161.1,0,0,0-14.67-8.58l-3.92-2.13c-3.46-1.91-7-4.5-7-9.23s2.67-7.43,7.51-7.43c4.5,0,7.92,3.32,8.7,8.39a.79.79,0,0,0,.73.74.89.89,0,0,0,1-.62c.49-1.58.92-3.64,1-4.25.52-3-.22-4.5-2.82-5.88a19.85,19.85,0,0,0-8.33-1.63c-12.21,0-16.54,6.57-16.54,12.19,0,5.39,3.8,9.29,7.51,11.3-8.15,1.07-13.52,5.89-13.52,12.27,0,8.57,7,13.69,18.67,13.69a25.09,25.09,0,0,0,20.4-10c3.08,2.49,4.51,4.83,4.51,7.34a9.12,9.12,0,0,1-.63,3.64.81.81,0,0,0,0,1.08.94.94,0,0,0,.68.27,1.19,1.19,0,0,0,.71-.24,11.46,11.46,0,0,0,4.92-9.1C295.43,120.76,293.65,118,289.12,114.86Zm-22,11.53c-7.14,0-11.94-3.74-11.94-9.33,0-3.89,1.63-7,4.35-8.17,2.48-1.09,4.48-.57,7.09.7a91,91,0,0,1,16.17,10.23C279.27,124.18,274,126.39,267.1,126.39Z" style="fill:#1c2930"/><path d="M335.53,79.88h-.22c-2.19.08-6.27.23-8.79.23s-7.62-.18-9.1-.24a.86.86,0,0,0-.87.82,1,1,0,0,0,.82,1c4.34.58,4.64,1.47,5,8.17.15,2.63.23,12.88.23,19.28,0,10.94-.26,17.35-1.72,22-1.39,4.46-4.13,7-8.88,8.11a.88.88,0,0,0-.79.93.86.86,0,0,0,.9.73h0c6.36-.56,11.76-3.16,15.22-7.34s4.21-8.81,3.89-25c-.08-5.52,0-16.46.08-18.73.16-6.87.68-7.86,4.3-8.15h0a.91.91,0,0,0,.79-1A.85.85,0,0,0,335.53,79.88Z" style="fill:#1c2930"/><path d="M355.32,96.34c-10.32,0-17.25,7.24-17.25,18,0,10.18,7.12,17,17.72,17s17.09-9,17.09-17.73C372.88,103.3,365.82,96.34,355.32,96.34ZM350,101.09A7,7,0,0,1,355.32,99c7.2,0,8.59,8.88,8.77,14.17.14,3.61-.11,10.15-3.28,13.43a6.45,6.45,0,0,1-4.86,2c-5.93,0-8.93-4.63-9.17-14.17C346.62,107.93,347.7,103.43,350,101.09Z" style="fill:#1c2930"/><path d="M410.14,97.05c-.63,0-1.39,0-2.2.1s-2,.13-3,.13-2.14-.07-3.19-.13c-.85-.06-1.61-.1-2.11-.1a.82.82,0,0,0-.84.79,1,1,0,0,0,.77,1c.85.15,1.32.38,1.55.77.44.72.26,2.21-.6,5-1.33,4.35-4.05,12.38-5.68,16.19a2,2,0,0,1-.12.27s-.06-.12-.09-.2c-3.62-8.19-6.23-14.52-7.74-18.8-.45-1.3-.54-2-.3-2.44s.74-.58,1.66-.75a.73.73,0,0,0,.61-.34A1,1,0,0,0,389,98a.85.85,0,0,0-.85-.91c-.77,0-1.84,0-3,.1-1.53.06-3.27.13-4.86.13-1.86,0-3.55-.08-4.9-.14-1,0-1.76-.09-2.38-.09a.76.76,0,0,0-.6.26.87.87,0,0,0-.18.55,1,1,0,0,0,.86,1c1.9.22,2.61.31,4.08,3s3.84,7.41,6.39,13.09c2.71,6.09,6.13,14.23,6.67,16-.26.56-1.33,2.82-2.61,5.05-3.54,6-8.77,9.77-13.66,9.77a6.44,6.44,0,0,1-3.91-1.14.9.9,0,0,0-1.13-.13,1.05,1.05,0,0,0-.31,1.34,7.86,7.86,0,0,0,7.65,5.32c7.23,0,12.75-7.37,21.09-28.17,3.23-7.79,6.74-16.17,8.22-19.2,2-4.18,3-4.71,4.62-4.92a.94.94,0,0,0,.65-1.52A.82.82,0,0,0,410.14,97.05Z" style="fill:#1c2930"/><path d="M452.37,128.78c-2.38-.38-3.63-.72-3.78-4-.17-2.78-.13-7.44-.1-12,0-1.73,0-3.42,0-4.94,0-7.67-3.73-11.55-11.08-11.55a14.49,14.49,0,0,0-10.76,5V99.58c0-1.61-.13-2.85-1.82-2.85a36.25,36.25,0,0,0-6.59,1.11c-1.22.27-2.58.57-4.06.87a.85.85,0,0,0-.76.93.9.9,0,0,0,.89.89h1c1.8,0,2.83.89,3.08,5.57.15,2.3.24,14.43-.08,18.37-.3,3.76-1.1,3.95-2.67,4.31a1,1,0,0,0-.72,1.05.78.78,0,0,0,.78.77c.64,0,2.08-.07,3.46-.12s2.8-.12,3.43-.12,1.94,0,3.18.1c1.54.06,3.28.14,4.73.14a.78.78,0,0,0,.64-.31.89.89,0,0,0,.2-.58.88.88,0,0,0-.77-.93h0c-2.87-.46-3.56-.57-3.78-4.3-.3-5-.33-12.41-.08-19.77a9.4,9.4,0,0,1,7.28-3.38c4.32,0,6.07,2.24,6.24,8,.16,4.83.16,11.52,0,15.57-.08,2.71-.63,3.69-2.19,3.89a.94.94,0,0,0-.72,1.05.79.79,0,0,0,.8.77c1.55-.09,5.32-.24,6.7-.24.9,0,2,0,3.12.1,1.36.06,2.89.14,4.4.14a.82.82,0,0,0,.65-.31.94.94,0,0,0,.19-.58C453.15,129.18,452.74,128.75,452.37,128.78Z" style="fill:#1c2930"/><path d="M471.3,109.66c-5.58-2.41-7.2-3.83-7.2-6.36S466,99.1,469.25,99h.14c4,0,7.22,3.25,8,8.13a.81.81,0,0,0,.74.69.91.91,0,0,0,.91-.65,42.07,42.07,0,0,0,.81-5.86c.09-1.9-.29-3-2.63-4a25.44,25.44,0,0,0-7.9-1c-7.63.07-12.18,3.65-12.18,9.58.08,4.83,3.18,8.13,10.37,11,5.75,2.38,7.5,3.9,7.5,6.51,0,2.44-1.68,5.06-6.41,5.14h-.16c-5.24,0-8.63-3.46-9.32-9.49a.86.86,0,0,0-.74-.9,1,1,0,0,0-1,.83,36.47,36.47,0,0,0-.8,6.48c0,2.68,1.13,4.14,3.76,4.89a27.34,27.34,0,0,0,7.72,1c8.23-.08,13.76-4.31,13.76-10.54C481.74,115.16,478.06,112.52,471.3,109.66Z" style="fill:#1c2930"/><path d="M502.23,96.34c-10.31,0-17.25,7.24-17.25,18,0,10.18,7.13,17,17.73,17s17.09-9,17.09-17.73C519.8,103.3,512.74,96.34,502.23,96.34Zm-5.33,4.75A7,7,0,0,1,502.23,99c7.21,0,8.6,8.88,8.78,14.17.13,3.61-.12,10.15-3.28,13.43a6.45,6.45,0,0,1-4.86,2c-5.94,0-8.94-4.63-9.18-14.17C493.53,107.93,494.61,103.43,496.9,101.09Z" style="fill:#1c2930"/><path d="M561.56,128.78h0c-2.38-.38-3.63-.72-3.78-4-.17-2.78-.13-7.44-.1-12,0-1.73,0-3.42,0-4.94,0-7.67-3.73-11.55-11.08-11.55a14.49,14.49,0,0,0-10.76,5V99.58c0-1.61-.13-2.85-1.82-2.85a36.12,36.12,0,0,0-6.59,1.11c-1.22.27-2.59.57-4.06.87a.85.85,0,0,0-.76.93.9.9,0,0,0,.89.89h1c1.8,0,2.82.89,3.08,5.57.15,2.3.24,14.43-.08,18.37-.3,3.76-1.1,3.95-2.67,4.31a1,1,0,0,0-.72,1.05.78.78,0,0,0,.78.77c.64,0,2.08-.07,3.46-.12s2.8-.12,3.42-.12c.78,0,2,0,3.18.1,1.54.06,3.29.14,4.74.14a.78.78,0,0,0,.64-.31.89.89,0,0,0,.2-.58.88.88,0,0,0-.78-.93h0c-2.87-.46-3.56-.57-3.78-4.3-.3-5-.33-12.41-.08-19.77a9.4,9.4,0,0,1,7.28-3.38c4.32,0,6.07,2.24,6.24,8,.16,4.83.16,11.52,0,15.57-.08,2.71-.63,3.69-2.2,3.89a.94.94,0,0,0-.71,1.05.78.78,0,0,0,.8.77c1.55-.09,5.32-.24,6.7-.24.9,0,2,0,3.12.1,1.36.06,2.89.14,4.4.14a.82.82,0,0,0,.65-.31.94.94,0,0,0,.19-.58A.87.87,0,0,0,561.56,128.78Z" style="fill:#1c2930"/><path d="M258.15,180.12c-3.28-.88-3.7-2.05-3.7-3,0-2.26,2.4-2.5,3.44-2.5a8.61,8.61,0,0,1,4.63,1.71l.74.53,1-3.46-.33-.27a9.9,9.9,0,0,0-6-2c-4.31,0-7.32,2.48-7.32,6,0,2.29,1.09,5.3,6.25,6.67,3.75,1,4.43,2,4.43,3.7,0,2.07-1.86,3-3.71,3a7.79,7.79,0,0,1-5.82-2.63l-.81-.87-1,4.06.24.26a10.21,10.21,0,0,0,7.38,2.71c3.66,0,7.59-2.11,7.59-6.76C265.13,183.6,263,181.39,258.15,180.12Z" style="fill:#1c2930"/><path d="M285.32,171A11.6,11.6,0,1,0,297,182.57,11.26,11.26,0,0,0,285.32,171Zm0,19.6c-4.43,0-7.52-3.29-7.52-8s3.09-8,7.52-8,7.48,3.29,7.48,8S289.65,190.57,285.32,190.57Z" style="fill:#1c2930"/><polygon points="310.53 171.56 306.48 171.56 306.48 193.58 320.32 193.58 320.32 189.99 310.53 189.99 310.53 171.56" style="fill:#1c2930"/><rect x="328.94" y="171.56" width="4.05" height="22.03" style="fill:#1c2930"/><path d="M354.17,171.11c-6.76,0-11.67,4.82-11.67,11.46S347.41,194,354.17,194a13.29,13.29,0,0,0,7.58-2.3l.26-.2V186.9l-1.07,1a9.76,9.76,0,0,1-6.77,2.57c-4.49,0-7.51-3.17-7.51-7.87s3-7.87,7.51-7.87a9.76,9.76,0,0,1,6.77,2.57l1.07,1v-4.63l-.26-.2A13.32,13.32,0,0,0,354.17,171.11Z" style="fill:#1c2930"/><rect x="371.7" y="171.56" width="4.05" height="22.03" style="fill:#1c2930"/><polygon points="384.33 175.16 391.69 175.16 391.69 193.58 395.75 193.58 395.75 175.16 403.11 175.16 403.11 171.56 384.33 171.56 384.33 175.16" style="fill:#1c2930"/><path d="M421,171a11.6,11.6,0,1,0,11.64,11.6A11.25,11.25,0,0,0,421,171Zm0,19.6c-4.43,0-7.52-3.29-7.52-8s3.09-8,7.52-8,7.48,3.29,7.48,8S425.35,190.57,421,190.57Z" style="fill:#1c2930"/><path d="M457.83,190.5c-1.22,0-2.17-.39-3.36-2.41l-2-3.44a6.18,6.18,0,0,0,4.65-6.37c0-3.25-1.95-6.72-7.42-6.72h-7.49v22h4.05V185h2l2.54,4.62c1.54,2.78,3.67,4.19,6.34,4.19a7.88,7.88,0,0,0,2.07-.26l.47-.12v-3.25l-.79.19A3.75,3.75,0,0,1,457.83,190.5Zm-11.6-15.34h3.44c2.26,0,3.4,1.05,3.4,3.12s-1.14,3.13-3.4,3.13h-3.44Z" style="fill:#1c2930"/><path d="M475.09,180.12c-3.29-.88-3.71-2.05-3.71-3,0-2.26,2.41-2.5,3.44-2.5a8.61,8.61,0,0,1,4.64,1.71l.74.53,1-3.46-.33-.27a9.9,9.9,0,0,0-6-2c-4.31,0-7.31,2.48-7.31,6,0,2.29,1.08,5.3,6.25,6.67,3.74,1,4.43,2,4.43,3.7,0,2.07-1.87,3-3.72,3a7.83,7.83,0,0,1-5.82-2.63l-.81-.87-1,4.06.25.26a10.2,10.2,0,0,0,7.37,2.71c3.66,0,7.6-2.11,7.6-6.76C482.07,183.6,479.91,181.39,475.09,180.12Z" style="fill:#1c2930"/><path d="M95.36,194.12h-43a8.4,8.4,0,0,1-8.4-8.4V17.92a8.37,8.37,0,0,1,8.37-8.37h4.63A2.45,2.45,0,0,0,59,5.81l-2.46-4A3.82,3.82,0,0,0,53.29,0H2.51A2.39,2.39,0,0,0,.13,2.38V5A4.58,4.58,0,0,0,4.7,9.55h5A8.37,8.37,0,0,1,18,17.92v167.8a8.4,8.4,0,0,1-8.4,8.4H5.23A5.24,5.24,0,0,0,0,199.36v1.29a3,3,0,0,0,3,3l98.46,0a1.1,1.1,0,0,0,.92-1.7l-4.05-6.19A3.58,3.58,0,0,0,95.36,194.12Z" style="fill:#1c2930"/><path d="M201.33,101.62H77.49a1.06,1.06,0,0,0-.88,1.67l3.2,4.65A7.46,7.46,0,0,0,86,111.17h47.62a22.94,22.94,0,0,1,22.94,22.94v29.15l-.2,4.4c0,15.51-16.82,25-44.91,26.14a1.42,1.42,0,0,0-1.15,2.19l3.92,6a3.69,3.69,0,0,0,3.07,1.67l12.29.06c28.66,0,52-13.71,52.46-37.77h0V119.54a8.37,8.37,0,0,1,8.37-8.37h9.77a3.46,3.46,0,0,0,3.45-3.46v-3.83A2.26,2.26,0,0,0,201.33,101.62Z" style="fill:#1c2930"/></g></g></svg>