<svg xmlns="http://www.w3.org/2000/svg" viewBox="0 0 757.4 678.87"><g id="Layer_2" data-name="Layer 2"><g id="Layer_1-2" data-name="Layer 1"><path d="M739.53,196.61,686.7,174.15Q533.43,109,380.11,44a6.88,6.88,0,0,0-4.83.15Q233.46,104.48,91.69,165q-36.49,15.57-73,31.11c-.93.39-1.86.75-3,1.23C10.42,185.06,5.26,173,0,160.65c8.72-3.73,17.24-7.4,25.78-11C38.18,144.32,50.55,139,63,133.82c2.55-1,3.49-2.27,3.47-5.12-.21-22.28-.22-44.57-.29-66.86V57.78h39.21V116c1.55-.57,2.64-.92,3.69-1.37Q242,57.68,375,.67a6.68,6.68,0,0,1,5.79,0Q566.29,79.6,751.86,158.43c1,.44,2,.91,3.27,1.47C749.92,172.16,744.79,184.25,739.53,196.61Z" style="fill:#1c2930"/><path d="M522.78,341.14c-6.57,23.53-18.4,43.19-38.18,57.56-16.29,11.83-34.77,18-54.54,20.35-22.24,2.66-44.34,1.5-65.87-5-39.54-11.91-63.58-38.68-73.12-78.46-6.58-27.43-5.43-54.71,5.53-80.92,15.1-36.09,42.91-57.1,80.69-65.21a134.47,134.47,0,0,1,65.25,1.66,92.33,92.33,0,0,1,29.31,14.33c.89.65,1.8,1.27,3.42,2.42V196.11c0-6,0-6,5.92-6h32v79.47c-1.1.08-2.09.2-3.08.2-10.73,0-21.47,0-32.2.06-2,0-2.95-.63-3.86-2.5-2.92-5.95-5.61-12.15-9.45-17.48-8.76-12.18-20.87-20.15-35.66-22.41-34.9-5.31-63.93,13.13-74.06,46.92-6.84,22.83-6.49,45.75,3.42,67.72s27.19,35.06,51.65,36.8c25.54,1.81,44.84-9.18,57.44-31.19,4.3-7.53,6.71-16.15,9.95-24.29a35.2,35.2,0,0,0,1-3.47Z" style="fill:#1c2930"/><path d="M687.45,258.52c-1,.07-1.69.18-2.39.18-10.84,0-21.68-.05-32.51.05-2,0-2.7-.73-3.27-2.6-1.47-4.86-2.73-9.92-5.09-14.36-7.44-14-23.53-20.11-37.59-14.68-13.17,5.08-16.78,19.79-6.77,29.74a61.78,61.78,0,0,0,15.5,10.76C626,273,637,277.59,647.84,282.7c11.5,5.45,22.38,11.89,31.56,20.87,14.18,13.87,19.94,31,19.7,50.47a78.11,78.11,0,0,1-3.81,24.44c-7.64,22.42-23.91,34.93-46.43,40a68.33,68.33,0,0,1-33.38-.53,47.38,47.38,0,0,1-25.8-17.19,6.11,6.11,0,0,0-2.76-2.21v18.57h-38v-76.7h37.48c.64,4.43.92,8.83,1.94,13.06,4.09,16.94,17.8,28.27,33.89,27.86C633,381.12,641.06,376,645.28,366c4.12-9.75,1.82-18.65-5.3-26.3-6.24-6.69-14.19-11-22.22-15.05-10.91-5.58-22-10.89-32.75-16.72a85,85,0,0,1-25.72-20.55c-9.56-11.6-13.36-25.11-13-39.91.36-12.91,3.25-25.2,11.17-35.71,13.28-17.63,31.64-24.46,53.13-23.78,15.52.49,28.2,6.81,37.4,19.58.29.4.66.74,1.55,1.73v-19h37.87Z" style="fill:#1c2930"/><path d="M105.12,592.76h89v39.7H65.53V440h39.59Z" style="fill:#1c2930"/><path d="M700.46,632.53H572V592.81h88.82V533.19h39.68Z" style="fill:#1c2930"/><path d="M237.66,200.82c-13-7.86-27.54-10.69-42.6-10.72q-62.88-.12-125.77,0H66v38.34H94.16v150.7H66v38H184.44V378.89h-31V334.51H157c10.84,0,21.69.21,32.52-.08a176.4,176.4,0,0,0,22.27-1.79c14.5-2.27,27.76-7.66,38.8-17.64,13.71-12.39,20.31-28.25,21.39-46.38C273.68,239.47,263.16,216.21,237.66,200.82ZM209,270.41C206.83,284,199,292.52,185,294.68c-9.82,1.52-19.92,1.13-29.9,1.6-2.1.1-1.87-1.4-1.87-2.71V228c10.84.42,21.36-.13,31.54,1.46,13.61,2.13,23.26,13.91,24.43,27.86A55.34,55.34,0,0,1,209,270.41Z" style="fill:#1c2930"/><path d="M752.14,438.19c-8.85,17.35-18.48,34.21-32,48.47A46.35,46.35,0,0,1,710,494.9c-6.13,3.54-11,.52-10-6.48a94,94,0,0,1,4.75-19.88c15.51-42.18,31.3-84.26,47-126.37.33-.89.6-1.81,1-3.13-7.36,2.49-14.19,4.87-21.07,7.09a5.66,5.66,0,0,0-4.09,3.93q-14.22,40.31-28.72,80.53c-3.79,10.43-6.65,21.23-12.28,31-8.76,15.16-17.66,30.22-29.76,43a50.9,50.9,0,0,1-10.11,8.35c-5.07,3.14-9.91.33-9.87-5.65a35.44,35.44,0,0,1,1.59-11.15c5.42-15.84,11.16-31.56,16.85-47.31,1.37-3.79,3-7.49,4.72-11.83-7.22,2.33-13.78,4.51-20.38,6.53a4,4,0,0,0-3.06,3.32c-.53,2.39-1.28,4.72-2.12,7.73-5.79-8.76-13.56-10-21.87-7.43-20.53,6.27-35,20-44.2,39a227.36,227.36,0,0,1-21.47,35.64c-9.29,12.62-20.11,23.67-33.64,31.84-.89.54-1.82,1-3.38,1.86,9.24-28.82,18.22-56.84,27.45-85.65-7.59,2.48-14.19,4.57-20.71,6.86-.8.27-1.47,1.55-1.75,2.5-.76,2.57-1.28,5.21-2.07,8.57-5.87-10.29-14.36-10-23.43-7.66a38.5,38.5,0,0,0-6.35,2.21c-17.55,8-29.63,21.3-37.64,38.66a138.15,138.15,0,0,1-35.52,47.5c-5.78,5-12.21,8.93-19.73,10.8-13.79,3.44-24.91-4.33-25.91-18a3.29,3.29,0,0,1,2.11-3.78c5.94-3,11.83-6.06,17.62-9.3,10.1-5.65,20.17-11.42,28.32-19.76a35,35,0,0,0,7.25-10.79c2.51-6.11-.79-11.76-7.15-13.57a26,26,0,0,0-15.13.48c-23.6,7.46-40.36,22.65-50,45.41-1.79,4.24-2,9.12-3.15,13.66a18.49,18.49,0,0,1-2.22,6.1c-14.22,20.49-28.62,40.85-42.85,61.33-4.47,6.44-8.53,13.17-12.95,20-4.75-13.39-15.59-15.39-27.58-15.18-11.27.2-22,3.32-32.61,6.64-.95.3-1.93.52-2.9.78a5.17,5.17,0,0,1,2.09-2.05A134,134,0,0,0,276,585.74c8.34-16.63,14-34.2,18.32-52.22.69-2.86,1.87-4.24,4.76-4.95A178.71,178.71,0,0,0,351.45,506c10.51-6.59,20.57-13.77,28.87-23.11,4.18-4.7,7.71-9.8,9.39-16,3.12-11.49-2.95-21.33-14.42-22.73a43.51,43.51,0,0,0-12.79.29c-14.56,2.59-27.49,9.09-39.35,17.73-23.25,16.93-39.24,39.36-49.26,66.15-.92,2.46-2.17,3.41-4.63,3.37-4.09-.06-8.2.25-12.26,0-8.15-.59-16-2.44-22.75-7.34-11.93-8.63-13.24-24.85-2.89-35.32a29.59,29.59,0,0,1,16.39-8.37c3.47-.59,7-.82,10.51-1.22-8.46-1.09-16.43.28-23.61,4.95-16.46,10.72-16,32.78.88,42.82a39.18,39.18,0,0,0,17.69,5.53c6.08.38,12.2.09,18.88.09-.34,1.47-.52,2.35-.75,3.22-1.91,7.1-3.77,14.22-5.75,21.3-5.05,18-10,36.05-18.21,52.94-6.35,13-14.74,24.28-27,32.3a20.48,20.48,0,0,1-5,2.25c-12.27,3.86-24.62,7.46-36.81,11.57-4.29,1.45-8.29,3.92-12.18,6.31a4.69,4.69,0,0,0-1.64,4c.17.83,2.51,1.9,3.7,1.72a66.07,66.07,0,0,0,12.17-2.77c12.77-4.56,24.41-11.42,36-18.37a12.58,12.58,0,0,1,3-1.52c7.7-2.17,15.52-3.57,23.58-3.18,13.32.65,22.39,7.81,25.35,20,.93,3.81,1.21,7.44-1.71,10.64a8.5,8.5,0,0,0-1.35,2.39c-.84,2-.13,3.43,2.06,3.2a18.46,18.46,0,0,0,6.72-1.71c7.32-3.92,10.76-10.49,12.22-18.45a45.94,45.94,0,0,1,3.09-9.44,36.4,36.4,0,0,1,3.78-6.3q24.56-35.6,49.16-71.14a11.37,11.37,0,0,1,1.48-1.44,8.54,8.54,0,0,1,.39,1.16c2,13.26,13.35,20.16,26.46,19.05,11.15-.94,20.79-5.83,29.78-12,16.29-11.26,28.34-26.39,38.61-43.09.55-.9,1.12-1.79,1.69-2.68.36,1.63-.05,3,0,4.41.24,5.06-.06,10.29,1.12,15.15,2.13,8.78,8.91,13.3,17.95,13.12,7.95-.16,14.63-3.41,20.57-8.42,6.49-5.47,11.51-12.15,16.05-19.24a22.3,22.3,0,0,1,1.87-2.27c.5.77.48,1.16.34,1.49-2.83,7.12-5.71,14.21-8.51,21.34-5.64,14.35-10.8,28.92-19,42.13-7.62,12.32-16.79,23.19-29.37,30.76-5.93,3.57-12.25,6-19.32,6.23-12.91.34-22.92-7.81-25.07-20.53-1.61-9.5,3.14-17.53,12.8-21.59,1.79-.75,3.64-1.39,6.11-2.33a7.09,7.09,0,0,0-1.58-.49c-11.92,2-23.05,5.74-31.59,14.77-5.07,5.36-6.36,11.85-3.9,18.8,3.44,9.74,11.27,13.8,20.84,15.25,10.91,1.65,21.4-.58,31.64-4,36.68-12.29,60.85-37.5,74.64-73.13a17.21,17.21,0,0,1,7.21-8.88c20.31-13.09,35.16-31.27,47.36-51.81.52-.87,1.09-1.72,1.63-2.58a6.73,6.73,0,0,1,.21,3.28c-.61,5.95-.51,11.85,1.65,17.54,2.92,7.68,9.25,11.71,17.45,11.26,6.24-.35,11.68-2.78,16.68-6.34,6.76-4.81,12-11,16.77-17.75.61-.87,1.24-1.73,2.05-2.86a7.81,7.81,0,0,1,.43,1.31c.68,10.57,9.14,15.74,20.2,11.8,7.71-2.75,13.92-7.68,19.46-13.51,11-11.59,19.21-25.15,27.17-38.87.57-1,1.17-1.94,1.75-2.91a6.57,6.57,0,0,1-.22,3.17c-1.51,7.38-3.63,14.71-4.31,22.18-.73,8,4.2,13.56,11.29,13.5a31.58,31.58,0,0,0,11.8-2.52c7.69-3.25,13.51-9.13,18.91-15.33,14.18-16.28,24.17-35.12,33.2-54.55a5,5,0,0,0,.15-1.47A70.27,70.27,0,0,0,752.14,438.19ZM298.62,518.5c5-15.52,11.36-30.4,20.83-43.79,6.37-9,13.83-16.92,23.75-22.14,4.74-2.49,9.73-4.32,15.2-4.11,6,.23,10.17,3.27,12.37,8.88,2.54,6.45,1.7,12.85-.53,19.15-3.94,11.15-11.22,19.88-20.41,27-15.16,11.75-32.4,19.23-50.93,23.86a30,30,0,0,1-3.08.4C296.85,524.31,297.69,521.39,298.62,518.5Zm64.91,38.43h0c.18-1,.34-1.95.5-2.89.24-1.42.46-2.78.71-4.11s.5-2.63.81-3.91A73.19,73.19,0,0,1,372,528.84a58.12,58.12,0,0,1,9.37-12.94c.54-.56,1.1-1.11,1.67-1.65a26.6,26.6,0,0,1,2.34-2,35.8,35.8,0,0,1,6.67-4.06c.46-.23.93-.44,1.4-.64a7.33,7.33,0,0,1,3-.65,4.62,4.62,0,0,1,4.21,2.64,6.27,6.27,0,0,1,.52,1.38c.06.25.12.51.16.79a7.44,7.44,0,0,1,.08.85c0,.44,0,.88,0,1.33a27.22,27.22,0,0,1-.6,5.44c-.19.89-.43,1.78-.7,2.64-.13.43-.28.85-.43,1.27-.31.85-.66,1.69-1,2.51a37.81,37.81,0,0,1-2.56,4.73l-.74,1.11a42,42,0,0,1-4.23,5.19c-.61.64-1.25,1.27-1.91,1.88s-1.34,1.19-2,1.76c-5.07,4.16-10.46,7.93-15.84,11.71-1.79,1.26-3.58,2.52-5.36,3.8a6.47,6.47,0,0,1-1.67.7l-.4.14Zm126.35-12.1a36.44,36.44,0,0,1-11.46,9.37l-.64.31c-.42.19-.84.35-1.26.5l-.63.19a11.63,11.63,0,0,1-2.49.4h-.61a9.69,9.69,0,0,1-2.91-.47,9.48,9.48,0,0,1-1.61-.68,10.51,10.51,0,0,1-3.91-3.69,13.47,13.47,0,0,1-1.59-3.72,44.59,44.59,0,0,1-1.06-5.48q-.25-1.87-.33-3.75a40,40,0,0,1,.12-5.59,74.76,74.76,0,0,1,9.68-30.58c1-1.7,2-3.36,3.11-5a84.41,84.41,0,0,1,5.4-7.16,35.53,35.53,0,0,1,4.4-4.52c.27-.22.53-.44.81-.65a21.43,21.43,0,0,1,2.58-1.72,18.14,18.14,0,0,1,6-2.14c5.74-1,10.27,1.36,12.08,6.86,1.07,3.24,1.28,6.77,1.67,9C506.17,515.08,500.84,531.08,489.88,544.83Zm120.83-31.39a23.88,23.88,0,0,1-11,8.51c-6.43,2.29-11.8,0-14.53-6.35-2.57-5.94-2.51-12.2-1.68-18.4a77.89,77.89,0,0,1,15.19-37c3.55-4.7,7.76-8.69,13.31-11,8.34-3.46,14.08-.51,15.9,8.27.53,2.59.66,5.26,1,7.68A90.09,90.09,0,0,1,610.71,513.44Z" style="fill:#1c2930"/></g></g></svg>