<svg xmlns="http://www.w3.org/2000/svg" viewBox="0 0 1649 336.36"><g id="Layer_2" data-name="Layer 2"><g id="Layer_1-2" data-name="Layer 1"><path d="M488.49,265.36c1.59-.1,2.79-.23,4-.23,16.7,0,33.41,0,50.12-.07,2.63,0,3.83.9,5.3,3.14,2.17,3.3,4.91,6.76,8.26,8.68,16.78,9.61,34.12,10.38,51,.56,13.1-7.62,17.29-20.39,17.91-35.33a11.25,11.25,0,0,0-2.39,1.34c-10.41,10.82-23.59,15.9-38.13,17.07-18.6,1.51-36.9-.38-54-8.46-24.44-11.53-38.86-31.13-44.65-57.07-6.36-28.52-4-56.34,9.73-82.47,12.88-24.47,33.66-38.27,60.88-42.65,12.85-2.06,25.65-2.18,38.36.92A52.8,52.8,0,0,1,622.44,87a13.85,13.85,0,0,0,1.13,1.17,7,7,0,0,0,1.32.53V71.06h55.37v4.41c0,56.53.5,113.07-.15,169.6-.59,51.05-32.83,82.8-78.5,89.75-28.51,4.34-55.45-.33-79.94-15.92-18.83-12-30.52-28.92-33.17-51.47C488.44,266.9,488.49,266.36,488.49,265.36Zm92.44-56.59c28.93-.51,49.94-22.24,42.69-52.74-6.37-26.75-33.28-41.53-58.32-32-21.36,8.09-31.22,34-25.38,55.84C544.62,197.39,560.73,208.52,580.93,208.77Z" style="fill:#1c2930"/><path d="M210.11,261.67h-6.76c-21.06,0-42.12-.12-63.17.1-4.24.05-6.87-1.19-9.46-4.58q-33-43.4-66.38-86.52a11.41,11.41,0,0,0-3.93-3.52v94.16H.08v-4.5Q.08,138,0,19.25c0-3.86,1-5.11,4.94-5.06q25.07.32,50.13,0c4.28-.07,5.14,1.39,5.12,5.36-.16,28.2-.08,56.4-.08,84.61v4.74l1,.45c1-1.26,2.15-2.47,3.09-3.79C84.74,76.76,105.38,48,125.79,19.09c2.57-3.65,5.22-5,9.64-4.92,20,.24,39.94.1,59.91.11,1.73,0,3.47.15,6.5.29-1.33,2.6-2,4.64-3.27,6.31q-39.57,54-79.25,107.87c-6.29,8.55-6.3,8.53.34,16.91q43.69,55.2,87.36,110.42C208.09,257.44,208.73,259.14,210.11,261.67Z" style="fill:#1c2930"/><path d="M751.86,88.53c.68-.62,1.39-1.2,2-1.87,11.32-12,25.68-17,41.76-18.43,13.3-1.15,26.28-.15,38.76,4.78,19.78,7.81,30.58,23.39,35.49,43.12a138.06,138.06,0,0,1,4.22,31.25c.5,36.74.2,73.48.2,110.23v3.65H818.47v-4.74c0-33.49.16-67-.15-100.47a53,53,0,0,0-3.27-17.8c-5.65-15.15-20.26-21.66-35.73-16.7s-25.61,19.15-25.63,35.83q-.08,49.41,0,98.84v5.1c-1.5.13-2.67.33-3.84.34-16.85,0-33.69-.08-50.53.08-3.49,0-4.34-1.2-4.34-4.46q.1-119.17,0-238.35c0-3.48,1-4.76,4.61-4.72q23.43.24,46.86,0c3.42,0,4.42,1.21,4.4,4.5-.1,21.42-.05,42.84-.05,64.27v5.15Z" style="fill:#1c2930"/><path d="M396.75,261.43H340.8V256.5c0-33.07.21-66.15-.17-99.22a58.48,58.48,0,0,0-3.79-20.12c-5.46-14-19.51-20.19-34-16-16.44,4.8-26.65,19.4-26.68,38.43q-.08,48,0,96v5.66H218V71h55.53V89.46c1.36-1.29,1.94-1.78,2.45-2.33,11.27-12.3,25.73-17.42,41.94-18.89,13-1.18,25.79-.29,38.05,4.33,20.34,7.65,31.05,23.55,36.62,43.65,3.49,12.63,4.38,25.58,4.38,38.59,0,33.75-.11,67.5-.18,101.25Z" style="fill:#1c2930"/><path d="M1014.44,197.76c18.22,0,35.45,0,52.68.07a2.93,2.93,0,0,1,2.23,1.66c2.26,10.25,9.92,14.18,19.09,15.63,7.78,1.23,15.71,1.31,23.22-1.93,4.42-1.92,8.26-4.49,8.22-10,0-4.71-3.3-8.68-9.18-10A109.07,109.07,0,0,0,1093,191c-16.13-.92-31.77-3.84-46.29-11.17-23.58-11.9-31.48-32.19-29-56.61,3.37-32.49,26.28-50.43,56.88-55.54,20.59-3.43,40.87-2.32,60.17,6.43,24.67,11.18,35.85,32.7,35.85,56.54-1.27.11-2.58.33-3.89.33-14.67,0-29.34,0-44,.06-2.82,0-4.42-.55-5-3.74-.8-4.77-4-8-8.46-9.63a42.83,42.83,0,0,0-27.92-.76,15.58,15.58,0,0,0-5.84,3.53c-5.71,5.45-4.25,13.78,3.18,16.26a58.63,58.63,0,0,0,15.13,2.44c15.94.89,31.54,3,46.22,9.79,23.86,11,35.86,31.63,34.49,57.77-1.64,31.12-19.77,47.75-42.65,54.57-26.26,7.84-52.76,8.26-78.59-1.93-22-8.66-34.16-25.42-37.7-48.56C1015.06,206.63,1014.88,202.47,1014.44,197.76Z" style="fill:#1c2930"/><path d="M1002.1,117.67H978.65c-4.08,0-8.16.17-12.22,0-3.26-.18-4.18,1.06-4.15,4.23.14,14.77.06,29.55.06,44.32,0,9.76,0,19.52,0,29.28.07,13.41,8.06,21.9,21.54,22.56,6.57.32,13.17.06,20.44.06.21,5.9.45,12.61.7,19.32.27,7.17.66,14.34.73,21.52,0,1.17-1.22,3.24-2.12,3.39-19.13,3.24-38.29,4.64-57.19-1.2-22.08-6.83-33.57-22.81-37.4-44.8a130.31,130.31,0,0,1-1.67-21c-.19-24-.07-48-.07-72,0-5.65,0-5.65-5.85-5.66H882.4v-47q9.69,0,19.39,0c5.52,0,5.52,0,5.53-5.58,0-14,.08-27.92-.07-41.88,0-3.12.91-4.26,4-4.51,14.87-1.2,29.71-2.63,44.57-3.92,2-.18,4,0,6.47,0v4.63c0,15.59.11,31.18-.07,46.77,0,3.61,1.06,4.67,4.62,4.59,10.18-.2,20.37-.07,30.56-.07h4.65Z" style="fill:#1c2930"/><path d="M411.92,261.44V71c1.47-.1,2.78-.26,4.09-.27,15.76,0,31.51.09,47.27-.08,3.46,0,4.73.8,4.72,4.49q-.15,91.1,0,182.18c0,3.26-.83,4.51-4.32,4.47-16-.16-32.05-.07-48.08-.08C414.51,261.66,413.44,261.54,411.92,261.44Z" style="fill:#1c2930"/><path d="M470.82,31.07A31,31,0,1,1,408.91,31a31,31,0,1,1,61.91.12Z" style="fill:#1c2930"/><path d="M1233.57,319.05V67.62H1242v56.94h.85a78.29,78.29,0,0,1,12.23-22.81,85,85,0,0,1,44.11-29.93,107,107,0,0,1,30.6-4.2q21.53,0,38.62,7.3a83.36,83.36,0,0,1,29.12,20.44,89.69,89.69,0,0,1,18.36,31,116.27,116.27,0,0,1,6.33,39.05,115.49,115.49,0,0,1-6.12,37.59,94.51,94.51,0,0,1-17.73,31.4,82.45,82.45,0,0,1-28.91,21.35q-17.31,7.84-39.67,7.84-34.62,0-57-15.51t-30-41.06H1242v112ZM1368,248.48a78,78,0,0,0,26-21.17,87.67,87.67,0,0,0,15-29.2,113.79,113.79,0,0,0,4.86-32.67,110.87,110.87,0,0,0-5.28-34.49,87.6,87.6,0,0,0-15.62-28.84,72.67,72.67,0,0,0-26.16-19.89q-15.82-7.31-36.93-7.3-20.68,0-37.14,7.3A80.65,80.65,0,0,0,1265,101.93a86.11,86.11,0,0,0-17.09,28.83,101.69,101.69,0,0,0-5.91,34.68q0,44.17,24.06,67.71t63.73,23.54Q1352.17,256.69,1368,248.48Z" style="fill:#1c2930"/><path d="M1447.63,11.31v252.3h-7.69V11.31Z" style="fill:#1c2930"/><path d="M1640,224a70.08,70.08,0,0,1-19,21.35,88.09,88.09,0,0,1-27.35,13.51,117.91,117.91,0,0,1-34.39,4.74q-23.51,0-41.65-7.48a89.08,89.08,0,0,1-30.55-20.25,85.65,85.65,0,0,1-18.8-29.75,102,102,0,0,1-6.41-36.32,121.18,121.18,0,0,1,6.2-38.87,91.71,91.71,0,0,1,18.8-32.49q12.59-14,32-22.45c13-5.59,26.68-6.38,44-6.38,10.26,0,22,2.61,31.37,5.29s16.3,7.17,23.71,12.28a68.29,68.29,0,0,1,18.59,19.16,64.81,64.81,0,0,1,9.61,26.47h-8.54a62,62,0,0,0-9.4-23.91,63.81,63.81,0,0,0-16.66-16.79c-6.56-4.5-12.47-8.45-20.73-10.64s-18.84-4.56-28-4.56c-17.37,0-30.67.85-42.77,6.57s-21.79,13.14-29,22.26a88.12,88.12,0,0,0-15.81,30.66,119.6,119.6,0,0,0-4.91,33.4,94.34,94.34,0,0,0,5.77,32.85,82.18,82.18,0,0,0,16.87,27.74,79.65,79.65,0,0,0,27.77,19.16q16.67,7.13,38.45,7.12a105.85,105.85,0,0,0,30.34-4.2,80.1,80.1,0,0,0,25-12.23,67.42,67.42,0,0,0,17.73-19.16,57.8,57.8,0,0,0,8.12-25.37H1649A71.4,71.4,0,0,1,1640,224Z" style="fill:#1c2930"/></g></g></svg>