<svg xmlns="http://www.w3.org/2000/svg" xmlns:xlink="http://www.w3.org/1999/xlink" viewBox="0 0 800.59 350.34"><defs><clipPath id="clip-path" transform="translate(6.05 0)"><path d="M130.09,296.46a107.31,107.31,0,0,1-10.87-18.71,116.39,116.39,0,0,0,58.94-17.82,116.55,116.55,0,0,0,59,17.82,106.51,106.51,0,0,1-59.06,55.57,105.85,105.85,0,0,1-48-36.86m69.54,42.61c-2.32-.37-4.66-.83-7-1.36A116.28,116.28,0,0,0,248,277.43a118,118,0,0,0,27.83-5.35,116.68,116.68,0,0,0,46.54-28.61c-.22,2.42-.51,4.77-.88,7a106.6,106.6,0,0,1-105,89.91,108.18,108.18,0,0,1-16.91-1.34M77.39,320A105.9,105.9,0,0,1,34.77,250.5c-.37-2.31-.65-4.68-.86-7.08a115.53,115.53,0,0,0,74.41,34,116.53,116.53,0,0,0,55.25,60.3,107.66,107.66,0,0,1-23.92,2.71A105.25,105.25,0,0,1,77.39,320m119.24-88.58a107.12,107.12,0,0,1-18.46,16.63,106.76,106.76,0,0,1-18.45-16.62,115.42,115.42,0,0,0,36.91,0m-81.32,36.38A106.67,106.67,0,0,1,112,212.3,116.24,116.24,0,0,0,144.42,228a115.83,115.83,0,0,0,24.76,25.86,106.61,106.61,0,0,1-52.79,14l-1.08,0m71.81-14a115.71,115.71,0,0,0,24.75-25.88,116,116,0,0,0,32.42-15.65A106.56,106.56,0,0,1,241,267.82h-.84a107.23,107.23,0,0,1-53-14m40.1-56.53a115.36,115.36,0,0,0,4.28-18A106.79,106.79,0,0,1,241.62,202a106.49,106.49,0,0,1-21.52,12.43,116.31,116.31,0,0,0,7.12-17.09M114.69,202a105.36,105.36,0,0,1,10.11-22.68,117.81,117.81,0,0,0,4.29,18,114.4,114.4,0,0,0,7.14,17.1A105.28,105.28,0,0,1,114.69,202m115.86-27.13h0s0,0,0,0a0,0,0,0,0,0,0m-147,87.82a106.21,106.21,0,0,1-49.95-34.41,105.88,105.88,0,0,1,20.25-57,107.58,107.58,0,0,1,14.44-16.17,116.52,116.52,0,0,0,35.08,50.6,116.52,116.52,0,0,0,1.35,61.54,107.56,107.56,0,0,1-21.17-4.56m169.45-57A116.42,116.42,0,0,0,288.05,155a106.95,106.95,0,0,1,34.68,73.17,106.31,106.31,0,0,1-71.11,39A116.72,116.72,0,0,0,253,205.66m-102.44,13.7a105.88,105.88,0,0,1-17.07-52.53,106.66,106.66,0,0,1,44.6-32.47,105.71,105.71,0,0,1,44.75,32.47,105.79,105.79,0,0,1-17.07,52.53,106.21,106.21,0,0,1-55.21,0m82.34-55.79A115.62,115.62,0,0,0,228,128c1.71.18,3.36.4,5,.65a106.91,106.91,0,0,1,46.88,19.67,106.45,106.45,0,0,1-30,46.93,115.65,115.65,0,0,0-17-31.64M76.48,148.28a107,107,0,0,1,46.87-19.68c1.64-.27,3.28-.49,5-.67a115.77,115.77,0,0,0-4.88,35.64,115.65,115.65,0,0,0-17,31.64,106.54,106.54,0,0,1-30-46.93m132-8.65a116.8,116.8,0,0,0-15.87-9.7,106.52,106.52,0,0,1,23.61-2.61h1.13a107.82,107.82,0,0,1,5.17,24.36,116.43,116.43,0,0,0-14-12.05M138.94,127.3c.46,0,.88,0,1.3,0a104.69,104.69,0,0,1,23.42,2.66,115.63,115.63,0,0,0-15.84,9.69,117.18,117.18,0,0,0-14.06,12.07,106,106,0,0,1,5.18-24.38m3.91-9.91a106.37,106.37,0,0,1,35.31-42.92,106.31,106.31,0,0,1,35.3,42.92,115.08,115.08,0,0,0-35.3,6.36,115.19,115.19,0,0,0-35.31-6.36m167.67,48a117.58,117.58,0,0,0-19.34-20.79,116.49,116.49,0,0,0-9.32-81.11,106.32,106.32,0,0,1,49.53,152.26,116.43,116.43,0,0,0-20.87-50.36m-295.4-37A105.94,105.94,0,0,1,74.46,63.49a116.35,116.35,0,0,0-9.32,81.12,117,117,0,0,0-40.23,71.15,106.07,106.07,0,0,1-9.79-87.38M71.6,116.47A105.84,105.84,0,0,1,88.8,58.52a107.3,107.3,0,0,1,28-3.77A105.23,105.23,0,0,1,149.37,60a106.62,106.62,0,0,1,19.81,8.77A116.66,116.66,0,0,0,132,117.66c-3.45.24-6.86.63-10.15,1.16a116.88,116.88,0,0,0-48,19.18,105.25,105.25,0,0,1-2.22-21.53m162.91,2.33c-3.23-.52-6.63-.9-10.13-1.17a116.59,116.59,0,0,0-37.23-48.94A105.48,105.48,0,0,1,267.54,58.5a106.49,106.49,0,0,1,15,79.47,117.1,117.1,0,0,0-48-19.17M178.16,9.92a106,106,0,0,1,80.14,36.4,116.29,116.29,0,0,0-80.13,16.2,116.22,116.22,0,0,0-61.63-17.68A117,117,0,0,0,98,46.32a105.86,105.86,0,0,1,80.12-36.4m-95.51,40A116.35,116.35,0,0,0,23.56,231.5,118.2,118.2,0,0,0,25,252.08,116.43,116.43,0,0,0,178,343.89a117.7,117.7,0,0,0,38.46,6.45,116.5,116.5,0,0,0,114.79-98.26,117.17,117.17,0,0,0,1.41-20.58,116.31,116.31,0,0,0-59-181.6,116.35,116.35,0,0,0-191,0" style="fill:#1c2930"/></clipPath></defs><g id="Layer_2" data-name="Layer 2"><g id="Layer_1-2" data-name="Layer 1"><path d="M130.09,296.46a107.31,107.31,0,0,1-10.87-18.71,116.39,116.39,0,0,0,58.94-17.82,116.55,116.55,0,0,0,59,17.82,106.51,106.51,0,0,1-59.06,55.57,105.85,105.85,0,0,1-48-36.86m69.54,42.61c-2.32-.37-4.66-.83-7-1.36A116.28,116.28,0,0,0,248,277.43a118,118,0,0,0,27.83-5.35,116.68,116.68,0,0,0,46.54-28.61c-.22,2.42-.51,4.77-.88,7a106.6,106.6,0,0,1-105,89.91,108.18,108.18,0,0,1-16.91-1.34M77.39,320A105.9,105.9,0,0,1,34.77,250.5c-.37-2.31-.65-4.68-.86-7.08a115.53,115.53,0,0,0,74.41,34,116.53,116.53,0,0,0,55.25,60.3,107.66,107.66,0,0,1-23.92,2.71A105.25,105.25,0,0,1,77.39,320m119.24-88.58a107.12,107.12,0,0,1-18.46,16.63,106.76,106.76,0,0,1-18.45-16.62,115.42,115.42,0,0,0,36.91,0m-81.32,36.38A106.67,106.67,0,0,1,112,212.3,116.24,116.24,0,0,0,144.42,228a115.83,115.83,0,0,0,24.76,25.86,106.61,106.61,0,0,1-52.79,14l-1.08,0m71.81-14a115.71,115.71,0,0,0,24.75-25.88,116,116,0,0,0,32.42-15.65A106.56,106.56,0,0,1,241,267.82h-.84a107.23,107.23,0,0,1-53-14m40.1-56.53a115.36,115.36,0,0,0,4.28-18A106.79,106.79,0,0,1,241.62,202a106.49,106.49,0,0,1-21.52,12.43,116.31,116.31,0,0,0,7.12-17.09M114.69,202a105.36,105.36,0,0,1,10.11-22.68,117.81,117.81,0,0,0,4.29,18,114.4,114.4,0,0,0,7.14,17.1A105.28,105.28,0,0,1,114.69,202m115.86-27.13h0s0,0,0,0a0,0,0,0,0,0,0m-147,87.82a106.21,106.21,0,0,1-49.95-34.41,105.88,105.88,0,0,1,20.25-57,107.58,107.58,0,0,1,14.44-16.17,116.52,116.52,0,0,0,35.08,50.6,116.52,116.52,0,0,0,1.35,61.54,107.56,107.56,0,0,1-21.17-4.56m169.45-57A116.42,116.42,0,0,0,288.05,155a106.95,106.95,0,0,1,34.68,73.17,106.31,106.31,0,0,1-71.11,39A116.72,116.72,0,0,0,253,205.66m-102.44,13.7a105.88,105.88,0,0,1-17.07-52.53,106.66,106.66,0,0,1,44.6-32.47,105.71,105.71,0,0,1,44.75,32.47,105.79,105.79,0,0,1-17.07,52.53,106.21,106.21,0,0,1-55.21,0m82.34-55.79A115.62,115.62,0,0,0,228,128c1.71.18,3.36.4,5,.65a106.91,106.91,0,0,1,46.88,19.67,106.45,106.45,0,0,1-30,46.93,115.65,115.65,0,0,0-17-31.64M76.48,148.28a107,107,0,0,1,46.87-19.68c1.64-.27,3.28-.49,5-.67a115.77,115.77,0,0,0-4.88,35.64,115.65,115.65,0,0,0-17,31.64,106.54,106.54,0,0,1-30-46.93m132-8.65a116.8,116.8,0,0,0-15.87-9.7,106.52,106.52,0,0,1,23.61-2.61h1.13a107.82,107.82,0,0,1,5.17,24.36,116.43,116.43,0,0,0-14-12.05M138.94,127.3c.46,0,.88,0,1.3,0a104.69,104.69,0,0,1,23.42,2.66,115.63,115.63,0,0,0-15.84,9.69,117.18,117.18,0,0,0-14.06,12.07,106,106,0,0,1,5.18-24.38m3.91-9.91a106.37,106.37,0,0,1,35.31-42.92,106.31,106.31,0,0,1,35.3,42.92,115.08,115.08,0,0,0-35.3,6.36,115.19,115.19,0,0,0-35.31-6.36m167.67,48a117.58,117.58,0,0,0-19.34-20.79,116.49,116.49,0,0,0-9.32-81.11,106.32,106.32,0,0,1,49.53,152.26,116.43,116.43,0,0,0-20.87-50.36m-295.4-37A105.94,105.94,0,0,1,74.46,63.49a116.35,116.35,0,0,0-9.32,81.12,117,117,0,0,0-40.23,71.15,106.07,106.07,0,0,1-9.79-87.38M71.6,116.47A105.84,105.84,0,0,1,88.8,58.52a107.3,107.3,0,0,1,28-3.77A105.23,105.23,0,0,1,149.37,60a106.62,106.62,0,0,1,19.81,8.77A116.66,116.66,0,0,0,132,117.66c-3.45.24-6.86.63-10.15,1.16a116.88,116.88,0,0,0-48,19.18,105.25,105.25,0,0,1-2.22-21.53m162.91,2.33c-3.23-.52-6.63-.9-10.13-1.17a116.59,116.59,0,0,0-37.23-48.94A105.48,105.48,0,0,1,267.54,58.5a106.49,106.49,0,0,1,15,79.47,117.1,117.1,0,0,0-48-19.17M178.16,9.92a106,106,0,0,1,80.14,36.4,116.29,116.29,0,0,0-80.13,16.2,116.22,116.22,0,0,0-61.63-17.68A117,117,0,0,0,98,46.32a105.86,105.86,0,0,1,80.12-36.4m-95.51,40A116.35,116.35,0,0,0,23.56,231.5,118.2,118.2,0,0,0,25,252.08,116.43,116.43,0,0,0,178,343.89a117.7,117.7,0,0,0,38.46,6.45,116.5,116.5,0,0,0,114.79-98.26,117.17,117.17,0,0,0,1.41-20.58,116.31,116.31,0,0,0-59-181.6,116.35,116.35,0,0,0-191,0" transform="translate(6.05 0)" style="fill:#1c2930"/><g style="clip-path:url(#clip-path)"><rect width="368.43" height="350.34" style="fill:#1c2930"/></g><polygon points="435.09 76.41 435.09 164.16 422.81 164.16 422.81 76.41 402.13 76.41 402.13 65.04 455.76 65.04 455.76 76.41 435.09 76.41" style="fill:#1c2930"/><path d="M497.52,164.16l-5-18.48H462.64l-5.05,18.48H444.8l26.5-99.38h12.53l26.36,99.38Zm-20-83.36-6.72,32.44-5,20.81h23.52l-5.17-21.19Z" transform="translate(6.05 0)" style="fill:#1c2930"/><polygon points="539.37 108.59 548.16 83.77 556.17 64.39 569.48 64.39 545.44 122.41 545.44 164.29 533.17 164.29 533.17 122.41 509.26 64.39 522.57 64.39 530.58 83.77 539.37 108.59" style="fill:#1c2930"/><polygon points="579.42 164.16 579.42 64.52 591.83 64.52 591.83 152.78 630.73 152.78 630.73 164.16 579.42 164.16" style="fill:#1c2930"/><path d="M698.07,131.46c0,21.84-4.91,33.6-32.31,33.6s-32.3-11.76-32.3-33.6V96.7c0-21.84,4.91-33.6,32.3-33.6s32.31,11.76,32.31,33.6Zm-12.4-34.89c0-15.76-1.29-22.22-19.91-22.22s-19.89,6.46-19.89,22.22v35c0,15.76,1.29,22,19.89,22s19.91-6.2,19.91-22Z" transform="translate(6.05 0)" style="fill:#1c2930"/><path d="M752.85,126.56l21.59,37.6H760l-20-36.83H728.69v37H716.41V64.4l26.75-.14c17.45,0,28.3,7.25,28.3,27.28v7c0,15.9-4.78,25.33-18.61,28.05M728.69,76v39.54h14.47c11,0,16-3.35,16-17v-7c0-13.7-5-14.86-16-15.51Z" transform="translate(6.05 0)" style="fill:#1c2930"/><path d="M440.53,263.81l21.58,37.6H447.65l-20-36.82H416.37v37H404.09V201.65l26.75-.13c17.45,0,28.3,7.24,28.3,27.27v7c0,15.91-4.78,25.33-18.61,28.05m-24.16-50.53v39.54h14.48c11,0,16-3.36,16-17.06v-7c0-13.7-5-14.87-16-15.51Z" transform="translate(6.05 0)" style="fill:#1c2930"/><path d="M538.35,268.72c0,21.84-4.91,33.6-32.3,33.6s-32.31-11.76-32.31-33.6V234c0-21.84,4.91-33.6,32.31-33.6s32.3,11.76,32.3,33.6ZM526,233.82c0-15.77-1.3-22.22-19.91-22.22s-19.9,6.45-19.9,22.22v35c0,15.76,1.3,22,19.9,22s19.91-6.2,19.91-22Z" transform="translate(6.05 0)" style="fill:#1c2930"/><path d="M599.6,226.33c-.64-8.14-3.48-14-15.89-14-13.83,0-16.54,6.33-16.54,16.28,0,13.83,12,13.7,24.55,15,11.5,1.16,23.39,6.85,23.39,27.65,0,21.45-8.14,30.63-28.69,30.63H584c-20.41,0-29.72-9.95-30.62-26.88h13.31c.64,8.4,4.39,14.86,17.18,14.86h2.46c13.44,0,16.15-6.33,16.15-18,0-16.28-10.73-16.55-23.13-17.58-11.63-.9-24.94-6.58-24.94-25.57,0-18.49,8.4-28.05,29.33-28.05,19.77,0,27.78,9.17,28.69,25.58Z" transform="translate(6.05 0)" style="fill:#1c2930"/><polygon points="687.58 201.65 687.58 212.51 649.59 212.51 649.59 242.49 683.96 242.49 683.96 253.99 649.59 253.99 649.59 289.91 690.81 289.91 690.81 301.41 637.31 301.41 637.31 201.65 687.58 201.65" style="fill:#1c2930"/><polygon points="715.16 209.59 715.66 223.88 715.66 255.26 712 255.26 712 200.93 715.86 200.93 727.55 235.13 739.3 200.93 743.16 200.93 743.16 255.26 739.59 255.26 739.59 223.88 740 209.59 728.18 242.88 726.99 242.88 715.16 209.59" style="fill:#1c2930"/><polygon points="773.22 203.89 776.03 203.89 786.09 248.92 786.23 248.92 790.87 226.55 796.72 200.93 800.59 200.93 787.99 255.33 784.12 255.33 778.42 230.35 774.63 211.35 770.89 230 765.12 255.33 761.25 255.33 748.65 200.93 752.52 200.93 758.37 226.55 763.01 248.92 763.15 248.92 773.22 203.89" style="fill:#1c2930"/></g></g></svg>