<?xml version="1.0" encoding="utf-8"?>
<!-- Generator: Adobe Illustrator 26.0.3, SVG Export Plug-In . SVG Version: 6.00 Build 0)  -->
<svg version="1.1" id="Layer_1" focusable="false" xmlns="http://www.w3.org/2000/svg" xmlns:xlink="http://www.w3.org/1999/xlink"
	 x="0px" y="0px" viewBox="0 0 384 453.9" style="enable-background:new 0 0 384 453.9;" xml:space="preserve">
<style type="text/css">
	.st0{fill:#FFFFFF;}
</style>
<path class="st0" d="M369.9,86.8L286,12.4c-9-8-21.2-12.5-33.9-12.5H48C21.5,0,0,19,0,42.5v368.8c0,23.5,21.5,42.6,48,42.6h288
	c26.5,0,48-19.1,48-42.6V116.9C384,105.7,378.9,94.8,369.9,86.8z M347.3,106.9c2.1,1.9,3.5,4.1,4.2,6.6H256V28.8
	c2.8,0.6,5.3,1.9,7.4,3.7L347.3,106.9z M336,425.5H48c-8.8,0-16-6.4-16-14.2V42.5c0-7.8,7.2-14.2,16-14.2h176v92.2
	c0,11.8,10.7,21.3,24,21.3h104v269.5C352,419.1,344.8,425.5,336,425.5z M288,209.2v7.1c0,5.9-5.4,10.6-12,10.6H108
	c-6.6,0-12-4.8-12-10.6v-7.1c0-5.9,5.4-10.6,12-10.6h168C282.6,198.6,288,203.4,288,209.2z M288,265.9v7.1c0,5.9-5.4,10.6-12,10.6
	H108c-6.6,0-12-4.8-12-10.6v-7.1c0-5.9,5.4-10.6,12-10.6h168C282.6,255.3,288,260.1,288,265.9z M288,322.7v7.1
	c0,5.9-5.4,10.6-12,10.6H108c-6.6,0-12-4.8-12-10.6v-7.1c0-5.9,5.4-10.6,12-10.6h168C282.6,312,288,316.8,288,322.7z"/>
</svg>
