<?xml version="1.0" encoding="utf-8"?>
<!-- Generator: Adobe Illustrator 26.0.3, SVG Export Plug-In . SVG Version: 6.00 Build 0)  -->
<svg version="1.1" id="Layer_1" focusable="false" xmlns="http://www.w3.org/2000/svg" xmlns:xlink="http://www.w3.org/1999/xlink"
	 x="0px" y="0px" viewBox="0 0 320 512" style="enable-background:new 0 0 320 512;" xml:space="preserve">
<style type="text/css">
	.st0{fill:#40B5B7;}
</style>
<path class="st0" d="M308,368h-16.1c-6.6,0-12,5.4-12,12v62.4H97.6V288H204c6.6,0,12-5.4,12-12v-8c0-6.6-5.4-12-12-12H97.6V150.4
	c0-42,30.7-78.3,85.8-78.3c27.9,0,51.4,12.4,63.4,20.1c5.1,3.3,11.9,2.2,15.8-2.5l10.7-13c4.5-5.5,3.3-13.6-2.6-17.6
	C255.3,48.8,224.2,32,183.4,32C107.6,32,53.7,82.1,53.7,147.9V256H20c-6.6,0-12,5.4-12,12v8c0,6.6,5.4,12,12,12h33.7v155H12
	c-6.6,0-12,5.4-12,12v13c0,6.6,5.4,12,12,12h296c6.6,0,12-5.4,12-12v-88C320,373.4,314.6,368,308,368z"/>
</svg>
